<svg width="280" height="149" viewBox="0 0 280 149" fill="none" xmlns="http://www.w3.org/2000/svg">
<g clip-path="url(#clip0_410_5850)">
<path d="M175.828 58.5186C177.916 58.5186 179.748 58.7873 181.325 59.3248C182.901 59.8624 184.157 60.5672 185.092 61.4393C185.938 62.212 186.581 63.1812 186.965 64.2613C187.352 65.4256 187.542 66.6466 187.525 67.8735C187.55 69.1418 187.352 70.4047 186.94 71.6046C186.542 72.6789 185.911 73.6517 185.092 74.4529C184.106 75.389 182.94 76.1158 181.665 76.5895C180.321 77.1096 178.731 77.3696 176.894 77.3696C175.733 77.3842 174.577 77.2183 173.467 76.8777C172.503 76.5943 171.647 76.0267 171.01 75.2491C170.404 74.4938 170.1 73.4819 170.099 72.2134C170.099 70.543 170.723 69.3504 171.97 68.6355C173.217 67.9206 175.244 67.5644 178.053 67.5671C179.768 67.5671 181.14 67.7015 182.171 67.9703C183.202 68.239 183.935 68.7141 184.37 69.3954C184.402 69.1278 184.417 68.8585 184.417 68.5891V67.7828C184.417 66.5855 184.027 65.6307 183.248 64.9185C182.468 64.2063 181.4 63.6969 180.043 63.3906C178.496 63.0669 176.919 62.9134 175.34 62.933C173.547 62.912 171.757 63.0939 170.004 63.4752C168.444 63.838 167.274 64.6524 166.495 65.9183L166.215 65.749C165.854 66.3083 165.365 66.7734 164.788 67.1055C164.164 67.4727 163.495 67.7573 162.798 67.9521C163.827 68.2523 164.782 68.7607 165.606 69.4458C166.412 70.1177 166.815 71.0443 166.815 72.2255C166.815 73.7413 165.989 74.9796 164.336 75.9404C162.683 76.9013 160.094 77.3817 156.567 77.3817H155.632C151.515 77.3817 148.582 76.7602 146.836 75.5171C145.089 74.2741 144.48 72.4761 145.009 70.1231H148.097C148.066 71.3217 148.659 72.2093 149.875 72.7858C151.091 73.3623 153.01 73.6506 155.632 73.6506C158.185 73.6506 159.924 73.453 160.849 73.058C161.773 72.6629 162.234 72.0803 162.23 71.3103C162.23 70.6115 161.759 70.0633 160.819 69.6655C159.878 69.2677 158.225 69.0702 155.86 69.0729H150.994V66.8334H155.86C158.23 66.8334 159.883 66.6359 160.819 66.2408C161.756 65.8376 162.23 65.2954 162.23 64.596C162.23 63.8259 161.769 63.238 160.849 62.8322C159.928 62.4264 158.189 62.2248 155.632 62.2275C153.012 62.2275 151.093 62.5157 149.875 63.0922C148.658 63.6687 148.065 64.5563 148.097 65.755H145.009C144.48 63.4262 145.089 61.6396 146.836 60.3952C148.582 59.1508 151.515 58.5293 155.632 58.5306H156.567C159.031 58.5306 161.027 58.7678 162.556 59.2422C164.085 59.7166 165.209 60.3609 165.926 61.1753C166.8 60.3851 168.001 59.7468 169.529 59.2603C171.056 58.7739 172.835 58.5306 174.864 58.5306L175.828 58.5186ZM176.576 72.933H178.214C180.553 72.933 182.175 72.6165 183.08 71.9836L183.034 71.6107C183.003 71.2868 182.879 70.9791 182.675 70.7257C182.471 70.4724 182.197 70.2845 181.887 70.1856C181.215 69.937 180.24 69.8127 178.962 69.8127H177.231C175.887 69.8127 174.818 69.947 174.026 70.2158C173.233 70.4846 172.835 70.9025 172.832 71.4696C172.832 71.9896 173.161 72.3645 173.816 72.5903C174.471 72.8161 175.39 72.929 176.576 72.929V72.933Z" fill="#3188E1"/>
<path d="M206.85 77.3754V72.967C208.07 72.8991 209.278 72.6963 210.454 72.3623C211.416 72.1045 212.29 71.588 212.98 70.8686C213.604 70.1967 213.917 69.2816 213.917 68.1232V67.7826C213.917 66.5852 213.526 65.6304 212.746 64.9182C211.965 64.206 210.897 63.6967 209.541 63.3903C206.435 62.7801 203.241 62.7801 200.135 63.3903C198.778 63.6967 197.71 64.206 196.93 64.9182C196.151 65.6304 195.761 66.5852 195.761 67.7826V68.1232C195.761 69.2762 196.073 70.1914 196.697 70.8686C197.386 71.588 198.26 72.1045 199.222 72.3623C200.398 72.6964 201.606 72.8993 202.826 72.967V77.3754C201.334 77.3393 199.857 77.0672 198.45 76.5691C197.282 76.1442 196.209 75.4927 195.294 74.6522C194.358 73.8199 193.649 72.7635 193.234 71.5822C192.486 69.1976 192.486 66.6416 193.234 64.2571C193.635 63.0979 194.348 62.0715 195.294 61.2899C196.197 60.4756 197.397 59.8084 198.896 59.2883C200.394 58.7683 202.219 58.5082 204.37 58.5082H205.306C207.334 58.5082 209.073 58.74 210.524 59.2036C211.976 59.6673 213.153 60.272 214.056 61.0178C214.96 60.272 216.162 59.6673 217.66 59.2036C219.346 58.7138 221.097 58.4794 222.853 58.5082H223.79C225.878 58.5082 227.71 58.777 229.287 59.3145C230.863 59.852 232.119 60.5703 233.054 61.4693C233.903 62.2228 234.546 63.1791 234.925 64.249C235.675 66.6565 235.675 69.2352 234.925 71.6427C234.547 72.7134 233.903 73.6706 233.054 74.4244C232.113 75.3301 230.85 76.0484 229.265 76.5792C227.679 77.11 225.76 77.3787 223.508 77.3855C222.48 77.3855 221.591 77.3519 220.841 77.2847V72.9771H223.322C224.901 72.9968 226.477 72.8433 228.023 72.5195C229.381 72.2131 230.45 71.7038 231.23 70.9916C232.009 70.2794 232.399 69.3246 232.399 68.1273V67.7866C232.399 66.5893 232.009 65.6345 231.23 64.9223C230.45 64.21 229.381 63.7007 228.023 63.3943C226.477 63.0705 224.901 62.9171 223.322 62.9368C222.006 62.9281 220.692 63.0245 219.392 63.225C218.353 63.3683 217.352 63.7105 216.443 64.2329C216.633 64.8078 216.774 65.3978 216.864 65.9966C216.96 66.6365 217.007 67.2827 217.005 67.9297C217.018 69.1783 216.828 70.4208 216.443 71.6084C216.027 72.7892 215.319 73.8455 214.384 74.6784C213.468 75.5185 212.394 76.1698 211.226 76.5953C209.817 77.0844 208.34 77.3477 206.85 77.3754Z" fill="#3188E1"/>
<path d="M217.752 95.0798V76.7589H221.308V95.0737L217.752 95.0798ZM228.889 74.5597V87.1439C228.889 88.5226 229.24 89.5063 229.942 90.0949C230.643 90.6835 231.945 90.9771 233.848 90.9758H234.13V95.3862C233.967 95.4084 233.803 95.4192 233.638 95.4184H233.235C230.548 95.4184 228.559 94.8762 227.269 93.7917C225.979 92.7073 225.332 90.8642 225.328 88.2626V74.5557L228.889 74.5597Z" fill="#3188E1"/>
<path d="M146.497 118.093C146.446 118.093 146.395 118.083 146.348 118.064C146.301 118.045 146.258 118.016 146.222 117.98C146.186 117.944 146.158 117.901 146.139 117.854C146.119 117.807 146.109 117.757 146.11 117.706V107.208C146.108 107.155 146.118 107.101 146.137 107.052C146.156 107.002 146.185 106.956 146.223 106.918C146.258 106.881 146.301 106.853 146.348 106.833C146.395 106.814 146.446 106.804 146.497 106.805H150.431C151.519 106.805 152.414 106.972 153.116 107.305C153.794 107.614 154.354 108.135 154.713 108.788C155.094 109.531 155.286 110.357 155.269 111.191C155.292 111.666 155.303 112.085 155.301 112.449C155.301 112.814 155.301 113.229 155.269 113.691C155.281 114.547 155.093 115.394 154.721 116.166C154.381 116.812 153.833 117.323 153.165 117.617C152.471 117.933 151.587 118.092 150.512 118.093H146.497ZM148.351 116.239H150.431C150.933 116.257 151.433 116.169 151.899 115.981C152.269 115.815 152.564 115.52 152.729 115.15C152.926 114.672 153.022 114.159 153.012 113.642C153.021 113.32 153.029 113.038 153.036 112.796C153.042 112.554 153.042 112.312 153.036 112.07C153.036 111.828 153.022 111.552 153.012 111.24C152.989 110.359 152.768 109.709 152.35 109.288C151.932 108.868 151.266 108.658 150.351 108.659H148.351V116.239Z" fill="#153051"/>
<path d="M160.961 118.254C160.213 118.278 159.469 118.124 158.792 117.803C158.228 117.523 157.761 117.079 157.454 116.529C157.135 115.938 156.956 115.281 156.93 114.61C156.918 114.408 156.914 114.181 156.914 113.9C156.914 113.62 156.914 113.384 156.93 113.191C156.953 112.515 157.139 111.854 157.47 111.264C157.789 110.719 158.259 110.279 158.825 109.998C159.498 109.7 160.225 109.546 160.961 109.546C161.697 109.546 162.425 109.7 163.098 109.998C163.663 110.279 164.133 110.719 164.453 111.264C164.782 111.854 164.968 112.515 164.993 113.191C164.993 113.392 165.009 113.62 165.009 113.9C165.009 114.181 165.009 114.416 164.993 114.61C164.966 115.281 164.786 115.937 164.469 116.529C164.161 117.079 163.695 117.523 163.13 117.803C162.453 118.123 161.71 118.278 160.961 118.254ZM160.961 116.658C161.208 116.672 161.455 116.631 161.684 116.538C161.913 116.444 162.118 116.301 162.284 116.118C162.594 115.757 162.767 115.229 162.8 114.529C162.8 114.368 162.816 114.158 162.816 113.9C162.816 113.642 162.816 113.433 162.8 113.271C162.767 112.584 162.598 112.062 162.284 111.691C162.11 111.517 161.904 111.379 161.677 111.285C161.45 111.191 161.207 111.143 160.961 111.143C160.716 111.143 160.472 111.191 160.246 111.285C160.019 111.379 159.813 111.517 159.639 111.691C159.327 112.056 159.155 112.584 159.123 113.271C159.111 113.433 159.107 113.642 159.107 113.9C159.107 114.158 159.107 114.368 159.123 114.529C159.155 115.229 159.325 115.757 159.639 116.118C159.805 116.301 160.01 116.445 160.239 116.538C160.468 116.632 160.715 116.673 160.961 116.658Z" fill="#153051"/>
<path d="M167.196 118.093C167.145 118.094 167.094 118.084 167.047 118.065C167 118.046 166.957 118.017 166.922 117.98C166.885 117.945 166.856 117.902 166.837 117.855C166.817 117.808 166.808 117.757 166.809 117.706V110.095C166.808 110.044 166.817 109.993 166.837 109.946C166.856 109.899 166.885 109.856 166.922 109.821C166.957 109.784 167 109.755 167.047 109.736C167.094 109.716 167.145 109.707 167.196 109.708H168.454C168.505 109.707 168.555 109.717 168.602 109.737C168.649 109.756 168.692 109.784 168.728 109.82C168.764 109.856 168.793 109.899 168.812 109.946C168.831 109.993 168.841 110.044 168.841 110.095V110.643C169.086 110.325 169.397 110.064 169.752 109.877C170.172 109.657 170.64 109.544 171.115 109.546C172.34 109.524 173.195 110.002 173.679 110.982C173.934 110.543 174.305 110.184 174.751 109.941C175.225 109.673 175.762 109.534 176.307 109.538C176.84 109.532 177.366 109.665 177.831 109.925C178.301 110.198 178.677 110.605 178.911 111.094C179.197 111.713 179.336 112.389 179.315 113.07V117.706C179.315 117.757 179.305 117.807 179.286 117.854C179.266 117.902 179.238 117.944 179.202 117.98C179.166 118.016 179.123 118.045 179.076 118.064C179.029 118.083 178.978 118.093 178.928 118.093H177.605C177.554 118.094 177.504 118.084 177.457 118.065C177.409 118.046 177.367 118.017 177.331 117.98C177.294 117.945 177.265 117.902 177.246 117.855C177.227 117.808 177.217 117.757 177.218 117.706V113.207C177.238 112.812 177.169 112.418 177.017 112.054C176.9 111.796 176.702 111.583 176.452 111.449C176.207 111.329 175.936 111.268 175.662 111.272C175.415 111.274 175.172 111.335 174.953 111.449C174.699 111.584 174.496 111.796 174.372 112.054C174.205 112.415 174.128 112.81 174.146 113.207V117.706C174.147 117.757 174.137 117.807 174.117 117.854C174.098 117.902 174.07 117.944 174.034 117.98C173.998 118.016 173.955 118.045 173.908 118.064C173.861 118.083 173.81 118.093 173.759 118.093H172.437C172.385 118.095 172.332 118.087 172.284 118.067C172.235 118.048 172.191 118.018 172.155 117.98C172.085 117.906 172.047 117.808 172.05 117.706V113.207C172.067 112.81 171.99 112.415 171.824 112.054C171.699 111.796 171.496 111.585 171.244 111.449C171.009 111.331 170.749 111.27 170.486 111.272C170.232 111.274 169.983 111.337 169.76 111.457C169.509 111.594 169.306 111.805 169.18 112.062C169.012 112.419 168.934 112.813 168.954 113.207V117.706C168.954 117.757 168.944 117.807 168.925 117.854C168.906 117.902 168.877 117.944 168.841 117.98C168.805 118.016 168.762 118.045 168.715 118.064C168.668 118.083 168.618 118.093 168.567 118.093H167.196Z" fill="#153051"/>
<path d="M184.957 118.254C183.763 118.254 182.817 117.91 182.118 117.222C181.42 116.534 181.043 115.556 180.99 114.288C180.977 114.154 180.972 114.019 180.974 113.884C180.971 113.75 180.976 113.615 180.99 113.481C181.012 112.749 181.202 112.032 181.546 111.385C181.861 110.805 182.338 110.33 182.919 110.018C183.55 109.689 184.255 109.525 184.967 109.543C185.734 109.516 186.493 109.703 187.16 110.083C187.745 110.438 188.211 110.96 188.498 111.582C188.811 112.279 188.965 113.036 188.95 113.8V114.138C188.951 114.189 188.941 114.24 188.922 114.287C188.902 114.334 188.873 114.377 188.837 114.413C188.798 114.45 188.753 114.479 188.703 114.498C188.653 114.517 188.6 114.527 188.547 114.525H183.193V114.654C183.199 115.012 183.273 115.365 183.411 115.695C183.537 116.001 183.747 116.266 184.015 116.46C184.289 116.658 184.621 116.76 184.959 116.751C185.218 116.758 185.476 116.711 185.717 116.614C185.899 116.537 186.068 116.43 186.216 116.299C186.316 116.211 186.408 116.114 186.491 116.009C186.55 115.914 186.63 115.835 186.724 115.775C186.81 115.744 186.9 115.73 186.99 115.735H188.361C188.459 115.731 188.554 115.766 188.627 115.832C188.661 115.862 188.686 115.899 188.701 115.942C188.717 115.984 188.722 116.029 188.716 116.073C188.681 116.302 188.589 116.518 188.45 116.702C188.252 116.982 188.009 117.227 187.732 117.428C187.377 117.687 186.982 117.885 186.563 118.017C186.044 118.181 185.501 118.262 184.957 118.254ZM183.183 113.175H186.749V113.126C186.759 112.751 186.69 112.377 186.547 112.03C186.418 111.731 186.209 111.474 185.942 111.288C185.651 111.109 185.316 111.014 184.975 111.014C184.633 111.014 184.298 111.109 184.007 111.288C183.737 111.471 183.527 111.729 183.402 112.03C183.261 112.378 183.192 112.751 183.201 113.126L183.183 113.175Z" fill="#153051"/>
<path d="M193.826 118.254C193.266 118.267 192.709 118.191 192.173 118.029C191.77 117.906 191.391 117.715 191.052 117.464C190.799 117.278 190.581 117.049 190.407 116.787C190.288 116.619 190.211 116.426 190.181 116.223C190.174 116.17 190.179 116.117 190.197 116.068C190.216 116.019 190.246 115.975 190.286 115.94C190.359 115.874 190.454 115.837 190.552 115.836H191.826C191.873 115.833 191.919 115.841 191.962 115.861C192.004 115.881 192.041 115.911 192.068 115.948C192.207 116.067 192.354 116.19 192.512 116.319C192.68 116.456 192.867 116.568 193.068 116.65C193.37 116.757 193.691 116.802 194.011 116.783C194.331 116.763 194.643 116.68 194.93 116.537C195.062 116.469 195.171 116.366 195.247 116.239C195.322 116.112 195.361 115.967 195.358 115.819C195.366 115.62 195.3 115.425 195.172 115.271C194.978 115.091 194.743 114.961 194.487 114.892C194.024 114.745 193.553 114.624 193.076 114.529C192.555 114.42 192.05 114.241 191.576 113.997C191.213 113.814 190.906 113.535 190.689 113.191C190.491 112.848 190.39 112.458 190.399 112.062C190.4 111.63 190.532 111.208 190.778 110.853C191.064 110.443 191.453 110.118 191.907 109.909C192.491 109.644 193.128 109.517 193.769 109.538C194.283 109.529 194.795 109.602 195.285 109.756C195.669 109.878 196.031 110.06 196.358 110.296C196.608 110.478 196.829 110.699 197.011 110.949C197.138 111.117 197.222 111.314 197.253 111.522C197.26 111.573 197.255 111.626 197.238 111.675C197.221 111.724 197.193 111.768 197.156 111.804C197.087 111.871 196.994 111.909 196.898 111.909H195.705C195.654 111.91 195.604 111.899 195.559 111.877C195.514 111.854 195.471 111.827 195.43 111.796C195.312 111.69 195.183 111.577 195.043 111.457C194.889 111.33 194.718 111.224 194.535 111.143C194.287 111.043 194.021 110.996 193.753 111.006C193.42 110.983 193.089 111.077 192.818 111.272C192.716 111.351 192.634 111.452 192.578 111.568C192.522 111.685 192.494 111.812 192.495 111.941C192.491 112.112 192.545 112.28 192.649 112.417C192.819 112.595 193.033 112.726 193.27 112.796C193.73 112.955 194.202 113.079 194.681 113.167C195.282 113.256 195.863 113.449 196.398 113.739C196.772 113.942 197.084 114.243 197.301 114.61C197.48 114.945 197.571 115.319 197.567 115.698C197.571 116.169 197.421 116.628 197.14 117.005C196.815 117.421 196.379 117.737 195.882 117.916C195.224 118.156 194.526 118.271 193.826 118.254Z" fill="#153051"/>
<path d="M203.017 118.093C202.455 118.111 201.897 117.995 201.389 117.755C200.957 117.539 200.61 117.184 200.405 116.747C200.174 116.222 200.064 115.651 200.083 115.078V111.417H198.809C198.758 111.418 198.707 111.409 198.66 111.389C198.613 111.37 198.57 111.341 198.534 111.304C198.498 111.269 198.469 111.226 198.449 111.179C198.43 111.132 198.42 111.081 198.422 111.03V110.095C198.42 110.044 198.43 109.993 198.449 109.946C198.469 109.899 198.498 109.856 198.534 109.821C198.57 109.784 198.613 109.755 198.66 109.736C198.707 109.716 198.758 109.707 198.809 109.708H200.083V107.031C200.08 106.929 200.118 106.831 200.187 106.757C200.224 106.719 200.268 106.689 200.316 106.67C200.365 106.65 200.417 106.642 200.47 106.644H201.776C201.827 106.644 201.877 106.654 201.924 106.673C201.971 106.692 202.014 106.721 202.05 106.757C202.086 106.793 202.115 106.835 202.134 106.883C202.153 106.93 202.163 106.98 202.163 107.031V109.708H204.178C204.229 109.708 204.28 109.717 204.327 109.737C204.374 109.756 204.417 109.785 204.453 109.821C204.489 109.857 204.517 109.899 204.537 109.946C204.556 109.994 204.566 110.044 204.566 110.095V111.026C204.566 111.077 204.556 111.127 204.537 111.175C204.517 111.222 204.489 111.264 204.453 111.3C204.417 111.336 204.374 111.365 204.327 111.384C204.28 111.404 204.229 111.413 204.178 111.413H202.163V114.912C202.142 115.272 202.223 115.629 202.397 115.944C202.552 116.192 202.824 116.315 203.203 116.315H204.316C204.366 116.315 204.417 116.325 204.464 116.344C204.511 116.364 204.554 116.392 204.59 116.428C204.626 116.464 204.654 116.507 204.674 116.554C204.693 116.601 204.703 116.652 204.703 116.702V117.71C204.703 117.761 204.693 117.812 204.674 117.859C204.654 117.906 204.626 117.949 204.59 117.985C204.554 118.021 204.511 118.049 204.464 118.068C204.417 118.088 204.366 118.098 204.316 118.097L203.017 118.093Z" fill="#153051"/>
<path d="M206.468 108.321C206.417 108.325 206.365 108.317 206.316 108.299C206.267 108.281 206.223 108.253 206.186 108.216C206.149 108.179 206.121 108.135 206.103 108.086C206.085 108.038 206.078 107.986 206.081 107.934V106.773C206.079 106.671 206.117 106.573 206.186 106.499C206.223 106.461 206.266 106.431 206.315 106.411C206.364 106.392 206.416 106.383 206.468 106.386H207.936C207.989 106.384 208.043 106.394 208.092 106.413C208.142 106.432 208.188 106.461 208.226 106.499C208.263 106.534 208.291 106.577 208.311 106.624C208.33 106.671 208.34 106.722 208.339 106.773V107.934C208.341 107.986 208.333 108.038 208.313 108.087C208.294 108.136 208.264 108.18 208.226 108.216C208.187 108.252 208.141 108.279 208.091 108.297C208.042 108.315 207.989 108.323 207.936 108.321H206.468ZM206.533 118.093C206.482 118.094 206.431 118.084 206.384 118.065C206.337 118.046 206.294 118.017 206.259 117.98C206.222 117.945 206.193 117.902 206.174 117.855C206.154 117.808 206.145 117.757 206.146 117.706V110.095C206.145 110.044 206.154 109.993 206.174 109.946C206.193 109.898 206.222 109.856 206.259 109.82C206.294 109.784 206.337 109.755 206.384 109.736C206.431 109.716 206.482 109.707 206.533 109.708H207.871C207.924 109.705 207.976 109.714 208.025 109.734C208.073 109.753 208.117 109.783 208.154 109.82C208.222 109.895 208.259 109.993 208.258 110.095V117.706C208.259 117.807 208.222 117.905 208.154 117.98C208.117 118.018 208.073 118.047 208.025 118.067C207.976 118.086 207.924 118.095 207.871 118.093H206.533Z" fill="#153051"/>
<path d="M214.032 118.254C213.327 118.27 212.629 118.121 211.992 117.819C211.419 117.542 210.942 117.102 210.621 116.553C210.275 115.937 210.089 115.244 210.081 114.537C210.069 114.376 210.065 114.164 210.065 113.9C210.065 113.636 210.065 113.419 210.081 113.247C210.089 112.541 210.275 111.848 210.621 111.232C210.942 110.683 211.419 110.242 211.992 109.966C212.629 109.664 213.327 109.515 214.032 109.53C214.631 109.515 215.227 109.614 215.789 109.821C216.228 109.987 216.633 110.233 216.983 110.546C217.269 110.806 217.507 111.114 217.684 111.457C217.825 111.725 217.91 112.019 217.934 112.32C217.941 112.372 217.935 112.425 217.917 112.474C217.899 112.523 217.868 112.567 217.829 112.602C217.752 112.671 217.651 112.709 217.547 112.707H216.136C216.045 112.713 215.956 112.685 215.886 112.626C215.815 112.557 215.758 112.475 215.717 112.385C215.603 112.023 215.381 111.704 215.08 111.474C214.778 111.286 214.427 111.193 214.072 111.207C213.834 111.196 213.597 111.235 213.376 111.323C213.155 111.411 212.955 111.544 212.79 111.715C212.471 112.054 212.301 112.592 212.28 113.328C212.26 113.704 212.26 114.081 212.28 114.457C212.303 115.199 212.473 115.736 212.79 116.069C212.957 116.238 213.157 116.37 213.378 116.456C213.599 116.542 213.835 116.581 214.072 116.569C214.427 116.584 214.778 116.491 215.08 116.303C215.377 116.071 215.597 115.753 215.709 115.392C215.75 115.302 215.807 115.219 215.878 115.15C215.948 115.092 216.037 115.063 216.128 115.07H217.539C217.643 115.068 217.744 115.105 217.821 115.174C217.86 115.209 217.891 115.253 217.909 115.302C217.927 115.352 217.933 115.405 217.926 115.457C217.907 115.681 217.856 115.901 217.773 116.11C217.665 116.377 217.519 116.627 217.337 116.851C217.123 117.118 216.87 117.352 216.588 117.545C216.253 117.77 215.886 117.941 215.499 118.053C215.022 118.191 214.528 118.259 214.032 118.254Z" fill="#153051"/>
<path d="M227.414 118.254C226.556 118.281 225.702 118.13 224.906 117.811C224.302 117.566 223.773 117.165 223.374 116.65C223.041 116.215 222.847 115.689 222.818 115.142C222.817 115.097 222.825 115.053 222.841 115.011C222.858 114.97 222.883 114.932 222.914 114.9C222.946 114.868 222.984 114.844 223.026 114.827C223.067 114.81 223.112 114.802 223.156 114.803H224.592C224.704 114.795 224.815 114.826 224.906 114.892C224.98 114.954 225.042 115.027 225.091 115.11C225.17 115.336 225.297 115.542 225.462 115.714C225.673 115.932 225.929 116.1 226.212 116.206C226.599 116.35 227.009 116.419 227.422 116.408C228.196 116.408 228.774 116.279 229.155 116.021C229.333 115.911 229.479 115.756 229.58 115.572C229.68 115.389 229.731 115.182 229.728 114.973C229.734 114.833 229.71 114.694 229.657 114.564C229.604 114.435 229.524 114.318 229.421 114.223C229.142 113.992 228.822 113.817 228.478 113.707C227.925 113.513 227.363 113.349 226.793 113.215C226.096 113.058 225.42 112.823 224.777 112.514C224.284 112.282 223.861 111.923 223.551 111.473C223.264 110.992 223.123 110.437 223.148 109.877C223.13 109.282 223.301 108.696 223.636 108.204C224.005 107.696 224.508 107.3 225.087 107.059C225.8 106.763 226.566 106.62 227.337 106.64C227.967 106.629 228.594 106.724 229.191 106.922C229.68 107.082 230.135 107.334 230.53 107.664C230.856 107.94 231.13 108.273 231.336 108.647C231.515 108.96 231.617 109.311 231.635 109.671C231.635 109.758 231.603 109.841 231.546 109.905C231.515 109.941 231.477 109.969 231.433 109.987C231.39 110.005 231.343 110.013 231.296 110.01H229.796C229.706 110.008 229.618 109.986 229.538 109.945C229.446 109.89 229.375 109.805 229.337 109.704C229.296 109.526 229.219 109.358 229.11 109.211C229.002 109.064 228.865 108.941 228.708 108.849C228.296 108.597 227.819 108.473 227.337 108.494C226.846 108.47 226.358 108.582 225.926 108.817C225.788 108.909 225.67 109.03 225.581 109.17C225.492 109.311 225.433 109.468 225.408 109.633C225.383 109.797 225.392 109.965 225.436 110.126C225.479 110.287 225.555 110.437 225.66 110.566C225.9 110.805 226.193 110.984 226.515 111.09C227.025 111.278 227.544 111.44 228.071 111.574C228.841 111.732 229.592 111.97 230.312 112.284C230.825 112.497 231.267 112.852 231.586 113.308C231.872 113.781 232.012 114.328 231.989 114.88C232.008 115.532 231.807 116.171 231.417 116.694C230.998 117.222 230.439 117.621 229.804 117.847C229.039 118.13 228.229 118.268 227.414 118.254Z" fill="#153051"/>
<path d="M237.267 118.254C236.073 118.254 235.127 117.91 234.429 117.222C233.73 116.534 233.353 115.556 233.3 114.287C233.3 114.181 233.284 114.044 233.284 113.884C233.284 113.725 233.284 113.586 233.3 113.481C233.324 112.749 233.514 112.032 233.856 111.385C234.169 110.809 234.642 110.335 235.219 110.022C235.85 109.693 236.555 109.53 237.267 109.546C238.034 109.52 238.793 109.707 239.46 110.087C240.046 110.441 240.513 110.964 240.798 111.586C241.112 112.283 241.266 113.04 241.25 113.804V114.142C241.251 114.193 241.241 114.244 241.222 114.291C241.203 114.338 241.174 114.381 241.137 114.416C241.098 114.454 241.053 114.483 241.003 114.502C240.953 114.521 240.9 114.531 240.847 114.529H235.493V114.658C235.501 115.015 235.575 115.368 235.711 115.698C235.838 116.004 236.047 116.269 236.315 116.464C236.59 116.661 236.921 116.763 237.259 116.755C237.518 116.762 237.776 116.716 238.016 116.618C238.199 116.541 238.368 116.435 238.516 116.303C238.617 116.216 238.709 116.118 238.791 116.013C238.851 115.919 238.93 115.839 239.024 115.779C239.11 115.748 239.2 115.735 239.29 115.739H240.677C240.775 115.735 240.871 115.77 240.943 115.836C240.977 115.865 241.003 115.903 241.019 115.945C241.034 115.987 241.039 116.033 241.032 116.077C240.999 116.306 240.907 116.523 240.766 116.706C240.569 116.986 240.326 117.232 240.048 117.432C239.693 117.691 239.299 117.89 238.879 118.021C238.358 118.185 237.813 118.264 237.267 118.254ZM235.493 113.175H239.057V113.126C239.068 112.751 238.999 112.377 238.855 112.03C238.728 111.73 238.518 111.473 238.25 111.288C238.042 111.145 237.804 111.049 237.553 111.009C237.303 110.969 237.047 110.985 236.804 111.056C236.561 111.127 236.337 111.251 236.148 111.42C235.959 111.588 235.809 111.797 235.711 112.03C235.57 112.378 235.501 112.751 235.509 113.126L235.493 113.175Z" fill="#153051"/>
<path d="M243.346 118.093C243.295 118.093 243.245 118.084 243.198 118.064C243.151 118.045 243.108 118.016 243.072 117.98C243.036 117.944 243.008 117.902 242.988 117.855C242.969 117.807 242.959 117.757 242.959 117.706V110.111C242.958 110.057 242.967 110.004 242.987 109.954C243.006 109.905 243.035 109.859 243.072 109.821C243.108 109.784 243.151 109.756 243.198 109.736C243.245 109.717 243.295 109.707 243.346 109.708H244.652C244.758 109.707 244.859 109.748 244.935 109.821C244.975 109.857 245.006 109.902 245.027 109.953C245.048 110.003 245.058 110.057 245.056 110.111V110.772C245.302 110.43 245.632 110.158 246.015 109.982C246.444 109.791 246.909 109.698 247.378 109.708H248.039C248.091 109.705 248.144 109.714 248.192 109.734C248.241 109.753 248.285 109.783 248.321 109.821C248.391 109.895 248.429 109.993 248.426 110.095V111.256C248.429 111.357 248.391 111.456 248.321 111.53C248.285 111.568 248.241 111.598 248.192 111.617C248.144 111.636 248.091 111.645 248.039 111.643H246.781C246.56 111.629 246.339 111.66 246.131 111.735C245.923 111.81 245.733 111.927 245.572 112.078C245.424 112.239 245.311 112.427 245.237 112.632C245.164 112.837 245.132 113.054 245.144 113.272V117.706C245.145 117.757 245.136 117.808 245.117 117.855C245.097 117.902 245.068 117.945 245.031 117.98C244.993 118.017 244.947 118.047 244.898 118.066C244.848 118.085 244.795 118.095 244.741 118.093H243.346Z" fill="#153051"/>
<path d="M252.651 118.093C252.582 118.099 252.514 118.091 252.449 118.07C252.384 118.05 252.324 118.016 252.272 117.972C252.19 117.889 252.122 117.794 252.07 117.69L249.046 110.208C249.027 110.161 249.016 110.112 249.014 110.063C249.014 110.016 249.023 109.97 249.041 109.927C249.059 109.884 249.086 109.845 249.119 109.813C249.151 109.779 249.19 109.752 249.233 109.734C249.276 109.716 249.322 109.707 249.369 109.708H250.675C250.728 109.703 250.782 109.711 250.832 109.729C250.882 109.747 250.927 109.775 250.965 109.813C251.022 109.87 251.066 109.938 251.094 110.014L253.239 115.674L255.384 110.014C255.413 109.939 255.457 109.87 255.513 109.813C255.551 109.775 255.597 109.747 255.647 109.729C255.697 109.711 255.75 109.703 255.803 109.708H257.125C257.17 109.708 257.213 109.718 257.253 109.736C257.294 109.754 257.33 109.78 257.359 109.813C257.393 109.845 257.42 109.884 257.438 109.927C257.456 109.97 257.465 110.016 257.464 110.063C257.464 110.111 257.459 110.16 257.448 110.208L254.424 117.69C254.38 117.798 254.311 117.895 254.223 117.972C254.114 118.061 253.976 118.104 253.836 118.093H252.651Z" fill="#153051"/>
<path d="M259.262 108.321C259.21 108.324 259.159 108.316 259.11 108.298C259.062 108.28 259.017 108.252 258.98 108.216C258.945 108.178 258.917 108.134 258.899 108.086C258.881 108.037 258.873 107.986 258.875 107.934V106.773C258.874 106.672 258.912 106.574 258.98 106.499C259.016 106.461 259.06 106.431 259.109 106.412C259.158 106.393 259.21 106.384 259.262 106.386H260.726C260.779 106.384 260.832 106.394 260.882 106.413C260.932 106.432 260.977 106.462 261.016 106.499C261.052 106.534 261.081 106.577 261.101 106.624C261.12 106.671 261.13 106.722 261.129 106.773V107.934C261.131 107.986 261.122 108.039 261.103 108.087C261.083 108.136 261.054 108.18 261.016 108.216C260.977 108.252 260.931 108.279 260.881 108.297C260.831 108.315 260.778 108.323 260.726 108.321H259.262ZM259.327 118.093C259.276 118.093 259.225 118.084 259.178 118.064C259.131 118.045 259.088 118.016 259.052 117.98C259.016 117.944 258.988 117.902 258.969 117.855C258.949 117.807 258.939 117.757 258.94 117.706V110.095C258.939 110.044 258.949 109.993 258.969 109.946C258.988 109.899 259.016 109.856 259.052 109.82C259.088 109.785 259.131 109.756 259.178 109.737C259.225 109.717 259.276 109.707 259.327 109.708H260.665C260.717 109.705 260.77 109.714 260.818 109.734C260.867 109.753 260.911 109.783 260.947 109.821C261.017 109.895 261.055 109.993 261.052 110.095V117.706C261.055 117.808 261.017 117.906 260.947 117.98C260.911 118.018 260.867 118.048 260.818 118.067C260.77 118.087 260.717 118.095 260.665 118.093H259.327Z" fill="#153051"/>
<path d="M266.825 118.254C266.121 118.269 265.422 118.12 264.785 117.819C264.213 117.542 263.736 117.101 263.414 116.553C263.069 115.937 262.883 115.244 262.874 114.537C262.864 114.376 262.858 114.164 262.858 113.9C262.858 113.636 262.858 113.419 262.874 113.247C262.883 112.541 263.069 111.848 263.414 111.232C263.736 110.683 264.213 110.243 264.785 109.966C265.422 109.664 266.121 109.515 266.825 109.53C267.424 109.515 268.021 109.614 268.583 109.821C269.022 109.987 269.426 110.233 269.776 110.546C270.064 110.804 270.302 111.113 270.478 111.457C270.62 111.725 270.705 112.018 270.728 112.32C270.735 112.372 270.729 112.425 270.711 112.475C270.693 112.524 270.662 112.568 270.623 112.602C270.545 112.671 270.444 112.709 270.341 112.707H268.93C268.839 112.713 268.749 112.684 268.68 112.626C268.61 112.556 268.552 112.474 268.51 112.385C268.398 112.022 268.175 111.704 267.873 111.474C267.572 111.286 267.22 111.193 266.865 111.207C266.628 111.196 266.391 111.235 266.17 111.323C265.948 111.411 265.749 111.544 265.583 111.715C265.266 112.054 265.097 112.592 265.075 113.328C265.053 113.704 265.053 114.081 265.075 114.457C265.098 115.199 265.268 115.736 265.583 116.069C265.75 116.238 265.95 116.37 266.171 116.456C266.392 116.542 266.629 116.581 266.865 116.569C267.221 116.584 267.572 116.492 267.873 116.303C268.171 116.071 268.39 115.753 268.502 115.392C268.544 115.302 268.602 115.221 268.672 115.15C268.741 115.092 268.831 115.063 268.921 115.07H270.332C270.436 115.068 270.537 115.105 270.615 115.174C270.654 115.209 270.685 115.253 270.703 115.302C270.721 115.351 270.727 115.405 270.719 115.457C270.702 115.681 270.65 115.901 270.566 116.11C270.46 116.378 270.314 116.628 270.131 116.851C269.916 117.118 269.663 117.352 269.381 117.545C269.047 117.77 268.68 117.942 268.293 118.053C267.816 118.191 267.321 118.259 266.825 118.254Z" fill="#153051"/>
<path d="M276.017 118.254C274.824 118.254 273.878 117.91 273.179 117.222C272.48 116.534 272.104 115.556 272.05 114.287C272.05 114.181 272.034 114.044 272.034 113.884C272.034 113.725 272.034 113.586 272.05 113.481C272.072 112.749 272.263 112.032 272.606 111.385C272.92 110.809 273.393 110.335 273.969 110.022C274.601 109.693 275.305 109.53 276.017 109.546C276.784 109.52 277.543 109.707 278.21 110.087C278.796 110.442 279.262 110.964 279.549 111.586C279.861 112.283 280.015 113.04 280 113.804V114.142C280.001 114.193 279.991 114.244 279.972 114.291C279.952 114.338 279.924 114.381 279.887 114.416C279.849 114.454 279.803 114.483 279.753 114.502C279.704 114.521 279.65 114.531 279.597 114.529H274.243V114.658C274.249 115.016 274.323 115.369 274.461 115.698C274.589 116.004 274.798 116.269 275.066 116.464C275.34 116.661 275.671 116.763 276.009 116.755C276.268 116.762 276.526 116.715 276.767 116.618C276.949 116.541 277.118 116.434 277.267 116.303C277.367 116.215 277.459 116.118 277.541 116.013C277.601 115.919 277.681 115.839 277.775 115.779C277.86 115.748 277.95 115.734 278.041 115.739H279.428C279.525 115.735 279.621 115.77 279.694 115.836C279.727 115.865 279.753 115.903 279.768 115.945C279.784 115.988 279.789 116.033 279.782 116.077C279.749 116.306 279.658 116.523 279.516 116.706C279.319 116.986 279.076 117.231 278.799 117.432C278.444 117.691 278.049 117.889 277.63 118.021C277.108 118.185 276.564 118.264 276.017 118.254ZM274.243 113.175H277.807V113.126C277.818 112.751 277.749 112.377 277.605 112.03C277.477 111.731 277.268 111.474 277.001 111.288C276.792 111.145 276.554 111.049 276.304 111.009C276.054 110.969 275.798 110.985 275.555 111.056C275.312 111.127 275.087 111.251 274.898 111.42C274.709 111.588 274.56 111.797 274.461 112.03C274.319 112.378 274.251 112.751 274.259 113.126L274.243 113.175Z" fill="#153051"/>
<path d="M91.1347 59.3772C91.1347 61.0558 91.7735 62.6715 92.9212 63.8964C94.069 65.1213 95.6398 65.8636 97.3149 65.9726C97.456 65.9726 97.5971 65.9868 97.7382 65.9868C99.2757 65.9855 100.765 65.449 101.95 64.4696C103.135 63.4901 103.942 62.1286 104.233 60.6189C104.309 60.2114 104.348 59.7978 104.348 59.3832C104.318 57.6511 103.608 56.0001 102.372 54.7858C101.137 53.5715 99.4737 52.8911 97.7412 52.8911C96.0088 52.8911 94.3457 53.5715 93.11 54.7858C91.8743 56.0001 91.165 57.6511 91.1347 59.3832V59.3772ZM95.656 55.4868C96.3282 55.1297 97.0814 54.9523 97.8423 54.972C98.6033 54.9917 99.3463 55.2078 99.9992 55.5992C100.652 55.9906 101.193 56.5442 101.569 57.2061C101.944 57.8681 102.143 58.616 102.145 59.3772C102.148 60.4159 101.782 61.422 101.113 62.2163C100.444 63.0107 99.5142 63.5418 98.4901 63.715C99.36 63.2562 100.051 62.5191 100.453 61.6214C100.855 60.7237 100.944 59.7172 100.706 58.7628C100.469 57.8084 99.9185 56.9611 99.1429 56.3563C98.3674 55.7515 97.4115 55.4241 96.428 55.4264C96.1695 55.4262 95.9113 55.4464 95.656 55.4868Z" fill="#3188E1"/>
<path d="M26.8453 33.5055C26.8453 33.6022 26.8453 33.6949 26.8453 33.7917C26.8983 34.9128 27.2362 36.002 27.8269 36.9563C28.4176 37.9107 29.2418 38.6988 30.2217 39.2462C31.1958 39.7915 32.2942 40.0762 33.4105 40.0727C34.3356 40.0732 35.2504 39.8782 36.0949 39.5005C36.9394 39.1229 37.6946 38.5711 38.311 37.8812C38.9274 37.1914 39.3912 36.3791 39.6718 35.4976C39.9524 34.6161 40.0436 33.6852 39.9394 32.766C39.8353 31.8468 39.5381 30.9599 39.0673 30.1635C38.5965 29.3672 37.9628 28.6793 37.2077 28.1448C36.4526 27.6104 35.593 27.2416 34.6854 27.0625C33.7778 26.8834 32.8426 26.8981 31.9411 27.1055L31.8746 27.1196C30.4423 27.4672 29.1682 28.2855 28.2563 29.4434C27.3444 30.6012 26.8476 32.0316 26.8453 33.5055ZM31.3364 29.6393C31.7091 29.442 32.1083 29.2995 32.5216 29.216C32.8113 29.1551 33.1065 29.1246 33.4025 29.1253C34.5013 29.1205 35.5617 29.5291 36.3732 30.2698C37.1848 31.0106 37.6881 32.0295 37.7833 33.1242C37.8784 34.2188 37.5585 35.3093 36.887 36.179C36.2155 37.0487 35.2415 37.6342 34.1584 37.8191C34.9923 37.3788 35.6616 36.6808 36.0665 35.8292C36.4714 34.9775 36.5903 34.0179 36.4054 33.0932C36.2204 32.1685 35.7416 31.3283 35.0403 30.6979C34.3389 30.0675 33.4527 29.6806 32.5135 29.595C32.4828 29.5909 32.4516 29.5909 32.4208 29.595C32.32 29.595 32.2193 29.5808 32.1104 29.5808C31.8512 29.5777 31.5922 29.5972 31.3364 29.6393Z" fill="#3188E1"/>
<path d="M81.6971 12.9268C81.6848 16.3248 83.011 19.5908 85.3888 22.0182C87.7666 24.4456 91.0047 25.8389 94.4021 25.8967C97.7995 25.9545 101.083 24.672 103.542 22.3269C106.001 19.9818 107.437 16.7626 107.541 13.3663C107.541 13.2191 107.541 13.072 107.541 12.9268C107.538 9.50204 106.177 6.21803 103.757 3.79482C101.337 1.37161 98.0548 0.00694734 94.63 1.12571e-05C92.6908 -0.00256342 90.7765 0.436545 89.0323 1.28403C86.8375 2.33727 84.9847 3.98876 83.6871 6.04847C82.3894 8.10819 81.6996 10.4924 81.6971 12.9268ZM90.5502 5.31951C91.8044 4.65525 93.2026 4.30916 94.6219 4.31164C94.8279 4.31066 95.0338 4.32074 95.2387 4.34187C97.3384 4.49109 99.3106 5.40418 100.783 6.90862C102.255 8.41306 103.125 10.4046 103.229 12.507C103.333 14.6094 102.663 16.677 101.346 18.319C100.029 19.9611 98.1561 21.0639 96.0813 21.4191C97.8855 20.4515 99.2864 18.8734 100.033 16.9673C100.781 15.0612 100.825 12.9515 100.159 11.0157C99.4923 9.07987 98.1589 7.44434 96.397 6.4018C94.635 5.35926 92.5596 4.97775 90.5421 5.32555L90.5502 5.31951Z" fill="#3188E1"/>
<path d="M71.431 77.9682C71.4301 78.8267 71.6645 79.6691 72.1086 80.4038C72.5528 81.1385 73.1897 81.7374 73.9503 82.1356C74.7109 82.5338 75.5661 82.716 76.4229 82.6624C77.2797 82.6089 78.1055 82.3215 78.8106 81.8317C79.5156 81.3418 80.073 80.6682 80.4222 79.8838C80.7713 79.0995 80.8989 78.2345 80.7911 77.3828C80.6832 76.5311 80.3441 75.7252 79.8105 75.0526C79.2769 74.3801 78.5693 73.8666 77.7644 73.5679C77.2424 73.3692 76.6881 73.2688 76.1296 73.2715C74.884 73.2721 73.6895 73.767 72.8085 74.6476C71.9275 75.5282 71.432 76.7225 71.431 77.9682ZM74.6561 75.2026C75.1127 74.9616 75.6214 74.8363 76.1377 74.8378C76.3201 74.837 76.5023 74.8525 76.6819 74.8841C77.4079 75.0124 78.0652 75.3928 78.5382 75.9582C79.0112 76.5236 79.2695 77.2378 79.2676 77.975C79.2656 78.7121 79.0036 79.425 78.5277 79.9879C78.0517 80.5509 77.3924 80.9278 76.6658 81.0522C77.1996 80.7718 77.6409 80.3429 77.9364 79.8172C78.2318 79.2915 78.3689 78.6916 78.3309 78.0898C78.293 77.488 78.0817 76.91 77.7226 76.4256C77.3635 75.9412 76.8718 75.571 76.307 75.3599C75.9556 75.2257 75.5826 75.1573 75.2064 75.1583C75.0193 75.1594 74.8326 75.1756 74.6481 75.2067L74.6561 75.2026Z" fill="#3188E1"/>
<path d="M72.8161 31.0017C46.2509 31.0017 24.0356 49.4919 18.2948 74.3115C24.6181 52.9892 44.3601 37.4359 67.7284 37.4359C96.1924 37.4359 119.278 60.52 119.278 88.986C119.278 96.7626 116.396 112.794 107.303 119.706C104.153 122.102 100.651 124.041 96.8435 125.196C89.5869 127.398 81.4212 128.678 73.8784 129.026C66.9745 129.335 59.9699 129.053 53.191 127.682C44.1787 125.845 36.0211 120.885 26.8173 119.841C17.7586 118.823 7.95617 122.294 1.7417 129.026C2.33231 128.635 18.9217 122.685 35.3277 129.546C60.6935 140.157 72.1166 142.649 93.8502 136.676C98.184 135.483 106.12 132.241 109.774 129.381C122.83 119.141 128.775 104.84 128.775 86.9602C128.764 56.035 103.725 31.0017 72.8161 31.0017Z" fill="#3188E1" stroke="#3188E1" stroke-width="2.72" stroke-miterlimit="10"/>
<path d="M101.737 101.935L99.7681 108.811V120.56L102.457 105.91L103.769 88.2524V111.302V118.289L101.092 109.204" fill="#0069A5"/>
<path d="M99.7683 74.5252L86.5069 60.6832L67.3837 40.7275L51.8203 56.9662L48.9701 59.9434L48.2686 60.6832L44.1505 64.9807L48.9762 58.5828V54.9545H39.1173V70.2236L35.0012 74.5191L25.3257 84.6138V88.2421H30.9959V117.639C31.1552 117.639 31.3245 117.639 31.4918 117.639H31.9675C32.6327 117.639 33.2777 117.692 33.8885 117.734L34.2271 117.764C34.4811 117.797 34.7351 117.829 34.9991 117.871V83.8398L47.3313 70.9674L48.0812 70.1873L48.9681 69.2581L67.3817 50.0402L86.6843 70.1974L99.7663 83.8499V91.0138C99.7663 92.5054 99.7663 93.997 99.7482 95.4887C99.73 96.9803 99.73 98.4115 99.73 99.8769V120.258H100.627C101.691 119.739 102.719 119.149 103.705 118.494V111.258L103.77 111.304V88.2482H109.44V84.6199L99.7683 74.5252Z" fill="#153051"/>
<path d="M65.7388 91.2356H53.0781V103.896H65.7388V91.2356Z" fill="#153051"/>
<path d="M81.0725 91.2356H68.4117V103.896H81.0725V91.2356Z" fill="#153051"/>
<path d="M65.7388 106.426H53.0781V119.087H65.7388V106.426Z" fill="#153051"/>
<path d="M81.0725 106.426H68.4117V119.087H81.0725V106.426Z" fill="#153051"/>
<path d="M6.37592 132.709C6.37592 132.709 20.2199 127.035 44.9266 138.442C69.6333 149.849 95.3801 141.844 100.321 139.615C87.928 145.203 75.3257 148.724 61.5382 148.23C56.2788 148.046 51.0548 147.294 45.9566 145.989C39.466 144.322 33.9107 140.196 27.7809 137.607C21.0282 134.753 13.7494 132.741 6.37592 132.709Z" fill="#153051"/>
</g>
<defs>
<clipPath id="clip0_410_5850">
<rect width="280" height="148.277" fill="white"/>
</clipPath>
</defs>
</svg>
