<svg width="20" height="21" viewBox="0 0 20 21" fill="none" xmlns="http://www.w3.org/2000/svg">
<path d="M13.3334 6.33333C13.3334 5.55836 13.3334 5.17087 13.2482 4.85295C13.017 3.99022 12.3431 3.31635 11.4804 3.08519C11.1625 3 10.775 3 10 3C9.22504 3 8.83756 3 8.51964 3.08519C7.65691 3.31635 6.98304 3.99022 6.75187 4.85295C6.66669 5.17087 6.66669 5.55836 6.66669 6.33333M4.33335 18H15.6667C16.6001 18 17.0668 18 17.4233 17.8183C17.7369 17.6586 17.9919 17.4036 18.1517 17.09C18.3334 16.7335 18.3334 16.2668 18.3334 15.3333V9C18.3334 8.06658 18.3334 7.59987 18.1517 7.24335C17.9919 6.92975 17.7369 6.67478 17.4233 6.51499C17.0668 6.33333 16.6001 6.33333 15.6667 6.33333H4.33335C3.39993 6.33333 2.93322 6.33333 2.5767 6.51499C2.2631 6.67478 2.00813 6.92975 1.84834 7.24335C1.66669 7.59987 1.66669 8.06658 1.66669 9V15.3333C1.66669 16.2668 1.66669 16.7335 1.84834 17.09C2.00813 17.4036 2.2631 17.6586 2.5767 17.8183C2.93322 18 3.39993 18 4.33335 18Z" stroke="#3188E1" stroke-width="1.5" stroke-linecap="round" stroke-linejoin="round"/>
</svg>
