<svg width="61" height="60" viewBox="0 0 61 60" fill="none" xmlns="http://www.w3.org/2000/svg">
<g id="emotion-sad-line 1">
<path id="Vector" d="M30.5 5C44.307 5 55.5 16.1929 55.5 30C55.5 31.8165 55.3063 33.5878 54.9383 35.2943L50.4828 30.8388C50.4943 30.5605 50.5 30.281 50.5 30C50.5 18.9543 41.5458 10 30.5 10C19.4543 10 10.5 18.9543 10.5 30C10.5 41.0458 19.4543 50 30.5 50C33.7558 50 36.8298 49.222 39.5465 47.842C39.9338 48.457 40.395 49.0373 40.929 49.571C41.6848 50.3268 42.5313 50.9363 43.4335 51.3995C39.6605 53.6843 35.234 55 30.5 55C16.6929 55 5.5 43.807 5.5 30C5.5 16.1929 16.6929 5 30.5 5ZM48 35.429L51.5355 38.9645C53.4883 40.917 53.4883 44.083 51.5355 46.0355C49.583 47.9883 46.417 47.9883 44.4645 46.0355C42.6005 44.1718 42.516 41.2025 44.2103 39.238L44.4645 38.9645L48 35.429ZM30.5 37.5C34.166 37.5 37.4633 39.078 39.7498 41.592L37.3873 43.7403C35.4125 42.9563 33.045 42.5 30.5 42.5C27.955 42.5 25.5875 42.9563 23.6127 43.7403L21.2502 41.592C23.5367 39.078 26.834 37.5 30.5 37.5ZM21.75 25C23.8211 25 25.5 26.679 25.5 28.75C25.5 30.821 23.8211 32.5 21.75 32.5C19.6789 32.5 18 30.821 18 28.75C18 26.679 19.6789 25 21.75 25ZM39.25 25C41.321 25 43 26.679 43 28.75C43 30.821 41.321 32.5 39.25 32.5C37.179 32.5 35.5 30.821 35.5 28.75C35.5 26.679 37.179 25 39.25 25Z" fill="#3188E1"/>
</g>
</svg>
