<svg width="28" height="28" viewBox="0 0 28 28" fill="none" xmlns="http://www.w3.org/2000/svg">
<rect x="0.5" y="0.5" width="27" height="27" rx="13.5" fill="#E9F2FF"/>
<path d="M14.6667 10.6667C14.6667 10.0467 14.6667 9.7367 14.5985 9.48236C14.4136 8.79218 13.8745 8.25308 13.1843 8.06815C12.93 8 12.62 8 12 8H11.2C10.0799 8 9.51984 8 9.09202 8.21799C8.71569 8.40973 8.40973 8.71569 8.21799 9.09202C8 9.51984 8 10.0799 8 11.2L8 16.8C8 17.9201 8 18.4802 8.21799 18.908C8.40973 19.2843 8.71569 19.5903 9.09202 19.782C9.51984 20 10.0799 20 11.2 20H12C12.62 20 12.93 20 13.1843 19.9319C13.8745 19.7469 14.4136 19.2078 14.5985 18.5176C14.6667 18.2633 14.6667 17.9533 14.6667 17.3333M17.3333 16.6667L20 14M20 14L17.3333 11.3333M20 14L12 14" stroke="#004AA4" stroke-linecap="round" stroke-linejoin="round"/>
<rect x="0.5" y="0.5" width="27" height="27" rx="13.5" stroke="#004AA4"/>
</svg>
