<svg width="36" height="36" viewBox="0 0 36 36" fill="none" xmlns="http://www.w3.org/2000/svg">
<rect x="0.5" y="0.5" width="35" height="35" rx="17.5" fill="#DEEBFF"/>
<path d="M19.7569 13.7145C19.7569 12.9173 19.7569 12.5188 19.6693 12.1918C19.4315 11.3044 18.7384 10.6113 17.851 10.3735C17.524 10.2859 17.1254 10.2859 16.3283 10.2859H15.2997C13.8596 10.2859 13.1395 10.2859 12.5895 10.5662C12.1056 10.8127 11.7122 11.2061 11.4657 11.6899C11.1854 12.24 11.1854 12.96 11.1854 14.4002L11.1854 21.6002C11.1854 23.0403 11.1854 23.7604 11.4657 24.3104C11.7122 24.7943 12.1056 25.1877 12.5895 25.4342C13.1395 25.7145 13.8596 25.7145 15.2997 25.7145H16.3283C17.1254 25.7145 17.524 25.7145 17.851 25.6268C18.7384 25.3891 19.4315 24.6959 19.6693 23.8086C19.7569 23.4816 19.7569 23.083 19.7569 22.2859M23.1854 21.4287L26.614 18.0002M26.614 18.0002L23.1854 14.5716M26.614 18.0002H16.3283" stroke="#004AA4" stroke-width="1.5" stroke-linecap="round" stroke-linejoin="round"/>
<rect x="0.5" y="0.5" width="35" height="35" rx="17.5" stroke="#153051"/>
</svg>
