<svg width="20" height="21" viewBox="0 0 20 21" fill="none" xmlns="http://www.w3.org/2000/svg">
<mask id="mask0_28_5181" style="mask-type:alpha" maskUnits="userSpaceOnUse" x="0" y="0" width="20" height="21">
<rect y="0.5" width="20" height="20" fill="#D9D9D9"/>
</mask>
<g mask="url(#mask0_28_5181)">
<path d="M9.95835 15.5C10.25 15.5 10.4965 15.3993 10.6979 15.1979C10.8993 14.9965 11 14.75 11 14.4583C11 14.1666 10.8993 13.9201 10.6979 13.7187C10.4965 13.5173 10.25 13.4166 9.95835 13.4166C9.66669 13.4166 9.42016 13.5173 9.21877 13.7187C9.01738 13.9201 8.91669 14.1666 8.91669 14.4583C8.91669 14.75 9.01738 14.9965 9.21877 15.1979C9.42016 15.3993 9.66669 15.5 9.95835 15.5ZM9.20835 12.2916H10.75C10.75 11.8333 10.8021 11.4722 10.9063 11.2083C11.0104 10.9444 11.3056 10.5833 11.7917 10.125C12.1528 9.76385 12.4375 9.4201 12.6459 9.09371C12.8542 8.76732 12.9584 8.37496 12.9584 7.91663C12.9584 7.13885 12.6736 6.54163 12.1042 6.12496C11.5347 5.70829 10.8611 5.49996 10.0834 5.49996C9.29169 5.49996 8.64933 5.70829 8.15627 6.12496C7.66321 6.54163 7.31946 7.04163 7.12502 7.62496L8.50002 8.16663C8.56946 7.91663 8.72571 7.64579 8.96877 7.35413C9.21183 7.06246 9.58335 6.91663 10.0834 6.91663C10.5278 6.91663 10.8611 7.03815 11.0834 7.28121C11.3056 7.52426 11.4167 7.79163 11.4167 8.08329C11.4167 8.36107 11.3334 8.62149 11.1667 8.86454C11 9.1076 10.7917 9.33329 10.5417 9.54163C9.93058 10.0833 9.55558 10.493 9.41669 10.7708C9.2778 11.0486 9.20835 11.5555 9.20835 12.2916ZM10 18.8333C8.84724 18.8333 7.76391 18.6145 6.75002 18.177C5.73613 17.7395 4.85419 17.1458 4.10419 16.3958C3.35419 15.6458 2.76044 14.7638 2.32294 13.75C1.88544 12.7361 1.66669 11.6527 1.66669 10.5C1.66669 9.34718 1.88544 8.26385 2.32294 7.24996C2.76044 6.23607 3.35419 5.35413 4.10419 4.60413C4.85419 3.85413 5.73613 3.26038 6.75002 2.82288C7.76391 2.38538 8.84724 2.16663 10 2.16663C11.1528 2.16663 12.2361 2.38538 13.25 2.82288C14.2639 3.26038 15.1459 3.85413 15.8959 4.60413C16.6459 5.35413 17.2396 6.23607 17.6771 7.24996C18.1146 8.26385 18.3334 9.34718 18.3334 10.5C18.3334 11.6527 18.1146 12.7361 17.6771 13.75C17.2396 14.7638 16.6459 15.6458 15.8959 16.3958C15.1459 17.1458 14.2639 17.7395 13.25 18.177C12.2361 18.6145 11.1528 18.8333 10 18.8333ZM10 17.1666C11.8611 17.1666 13.4375 16.5208 14.7292 15.2291C16.0209 13.9375 16.6667 12.3611 16.6667 10.5C16.6667 8.63885 16.0209 7.06246 14.7292 5.77079C13.4375 4.47913 11.8611 3.83329 10 3.83329C8.13891 3.83329 6.56252 4.47913 5.27085 5.77079C3.97919 7.06246 3.33335 8.63885 3.33335 10.5C3.33335 12.3611 3.97919 13.9375 5.27085 15.2291C6.56252 16.5208 8.13891 17.1666 10 17.1666Z" fill="#3188E1"/>
</g>
</svg>
