<svg width="20" height="21" viewBox="0 0 20 21" fill="none" xmlns="http://www.w3.org/2000/svg">
<mask id="mask0_28_5190" style="mask-type:alpha" maskUnits="userSpaceOnUse" x="0" y="0" width="20" height="21">
<rect y="0.5" width="20" height="20" fill="#D9D9D9"/>
</mask>
<g mask="url(#mask0_28_5190)">
<path d="M10 18.8333C8.86113 18.8333 7.78474 18.6145 6.77085 18.177C5.75696 17.7395 4.87155 17.1423 4.1146 16.3854C3.35766 15.6284 2.76044 14.743 2.32294 13.7291C1.88544 12.7152 1.66669 11.6388 1.66669 10.5C1.66669 9.34718 1.88544 8.26732 2.32294 7.26038C2.76044 6.25343 3.35766 5.37149 4.1146 4.61454C4.87155 3.8576 5.75696 3.26038 6.77085 2.82288C7.78474 2.38538 8.86113 2.16663 10 2.16663C11.1528 2.16663 12.2327 2.38538 13.2396 2.82288C14.2465 3.26038 15.1285 3.8576 15.8854 4.61454C16.6424 5.37149 17.2396 6.25343 17.6771 7.26038C18.1146 8.26732 18.3334 9.34718 18.3334 10.5C18.3334 11.6388 18.1146 12.7152 17.6771 13.7291C17.2396 14.743 16.6424 15.6284 15.8854 16.3854C15.1285 17.1423 14.2465 17.7395 13.2396 18.177C12.2327 18.6145 11.1528 18.8333 10 18.8333ZM10 17.125C10.3611 16.625 10.6736 16.1041 10.9375 15.5625C11.2014 15.0208 11.4167 14.4444 11.5834 13.8333H8.41669C8.58335 14.4444 8.79863 15.0208 9.06252 15.5625C9.32641 16.1041 9.63891 16.625 10 17.125ZM7.83335 16.7916C7.58335 16.3333 7.3646 15.8576 7.1771 15.3645C6.9896 14.8715 6.83335 14.3611 6.70835 13.8333H4.25002C4.6528 14.5277 5.15627 15.1319 5.76044 15.6458C6.3646 16.1597 7.05558 16.5416 7.83335 16.7916ZM12.1667 16.7916C12.9445 16.5416 13.6354 16.1597 14.2396 15.6458C14.8438 15.1319 15.3472 14.5277 15.75 13.8333H13.2917C13.1667 14.3611 13.0104 14.8715 12.8229 15.3645C12.6354 15.8576 12.4167 16.3333 12.1667 16.7916ZM3.54169 12.1666H6.37502C6.33335 11.8888 6.3021 11.6145 6.28127 11.3437C6.26044 11.0729 6.25002 10.7916 6.25002 10.5C6.25002 10.2083 6.26044 9.92704 6.28127 9.65621C6.3021 9.38538 6.33335 9.11107 6.37502 8.83329H3.54169C3.47224 9.11107 3.42016 9.38538 3.38544 9.65621C3.35071 9.92704 3.33335 10.2083 3.33335 10.5C3.33335 10.7916 3.35071 11.0729 3.38544 11.3437C3.42016 11.6145 3.47224 11.8888 3.54169 12.1666ZM8.04169 12.1666H11.9584C12 11.8888 12.0313 11.6145 12.0521 11.3437C12.0729 11.0729 12.0834 10.7916 12.0834 10.5C12.0834 10.2083 12.0729 9.92704 12.0521 9.65621C12.0313 9.38538 12 9.11107 11.9584 8.83329H8.04169C8.00002 9.11107 7.96877 9.38538 7.94794 9.65621C7.9271 9.92704 7.91669 10.2083 7.91669 10.5C7.91669 10.7916 7.9271 11.0729 7.94794 11.3437C7.96877 11.6145 8.00002 11.8888 8.04169 12.1666ZM13.625 12.1666H16.4584C16.5278 11.8888 16.5799 11.6145 16.6146 11.3437C16.6493 11.0729 16.6667 10.7916 16.6667 10.5C16.6667 10.2083 16.6493 9.92704 16.6146 9.65621C16.5799 9.38538 16.5278 9.11107 16.4584 8.83329H13.625C13.6667 9.11107 13.6979 9.38538 13.7188 9.65621C13.7396 9.92704 13.75 10.2083 13.75 10.5C13.75 10.7916 13.7396 11.0729 13.7188 11.3437C13.6979 11.6145 13.6667 11.8888 13.625 12.1666ZM13.2917 7.16663H15.75C15.3472 6.47218 14.8438 5.86801 14.2396 5.35413C13.6354 4.84024 12.9445 4.45829 12.1667 4.20829C12.4167 4.66663 12.6354 5.14232 12.8229 5.63538C13.0104 6.12843 13.1667 6.63885 13.2917 7.16663ZM8.41669 7.16663H11.5834C11.4167 6.55551 11.2014 5.97913 10.9375 5.43746C10.6736 4.89579 10.3611 4.37496 10 3.87496C9.63891 4.37496 9.32641 4.89579 9.06252 5.43746C8.79863 5.97913 8.58335 6.55551 8.41669 7.16663ZM4.25002 7.16663H6.70835C6.83335 6.63885 6.9896 6.12843 7.1771 5.63538C7.3646 5.14232 7.58335 4.66663 7.83335 4.20829C7.05558 4.45829 6.3646 4.84024 5.76044 5.35413C5.15627 5.86801 4.6528 6.47218 4.25002 7.16663Z" fill="#3188E1"/>
</g>
</svg>
