<svg width="25" height="25" viewBox="0 0 25 25" fill="none" xmlns="http://www.w3.org/2000/svg">
<path d="M19.5 22.5H5.5C3.84315 22.5 2.5 21.1569 2.5 19.5V3.5C2.5 2.94772 2.94772 2.5 3.5 2.5H17.5C18.0523 2.5 18.5 2.94772 18.5 3.5V15.5H22.5V19.5C22.5 21.1569 21.1569 22.5 19.5 22.5ZM18.5 17.5V19.5C18.5 20.0523 18.9477 20.5 19.5 20.5C20.0523 20.5 20.5 20.0523 20.5 19.5V17.5H18.5ZM16.5 20.5V4.5H4.5V19.5C4.5 20.0523 4.94772 20.5 5.5 20.5H16.5ZM6.5 7.5H14.5V9.5H6.5V7.5ZM6.5 11.5H14.5V13.5H6.5V11.5ZM6.5 15.5H11.5V17.5H6.5V15.5Z" fill="#787878"/>
</svg>
