<svg width="24" height="24" viewBox="0 0 24 24" fill="none" xmlns="http://www.w3.org/2000/svg">
<g clip-path="url(#clip0_9_3677)">
<path d="M21.5424 0.408936H2.45697V23.591H21.5424V0.408936Z" fill="#E6E6E6"/>
<path d="M11.9998 21.4704C16.0303 21.4704 19.2976 18.2031 19.2976 14.1726C19.2976 10.1421 16.0303 6.87473 11.9998 6.87473C7.96927 6.87473 4.7019 10.1421 4.7019 14.1726C4.7019 18.2031 7.96927 21.4704 11.9998 21.4704Z" fill="white"/>
<path d="M14.8146 14.1724C14.8146 12.9286 15.2547 11.7877 15.9876 10.8966C15.0411 9.74585 13.6064 9.01193 12 9.01193C9.15 9.01193 6.83954 11.3224 6.83954 14.1724C6.83954 17.0225 9.15 19.3329 12 19.3329C13.6063 19.3329 15.0411 18.599 15.9876 17.4483C15.2546 16.5572 14.8146 15.4162 14.8146 14.1724Z" fill="#C0EFFF"/>
<path d="M11.9998 17.4485C13.809 17.4485 15.2757 15.9818 15.2757 14.1726C15.2757 12.3633 13.809 10.8966 11.9998 10.8966C10.1905 10.8966 8.72382 12.3633 8.72382 14.1726C8.72382 15.9818 10.1905 17.4485 11.9998 17.4485Z" fill="#E6FAFF"/>
<path d="M21.5429 8.05167C21.317 8.05167 21.1339 8.23476 21.1339 8.4606V22.8164C21.1339 23.0181 20.9699 23.1821 20.7682 23.1821H6.44373C6.21788 23.1821 6.03479 23.3652 6.03479 23.5911C6.03479 23.8169 6.21788 24 6.44373 24H20.7682C21.4209 24 21.9518 23.469 21.9518 22.8164V8.4606C21.9518 8.23476 21.7687 8.05167 21.5429 8.05167Z" fill="black"/>
<path d="M20.7681 0H3.23181C2.57917 0 2.04822 0.530999 2.04822 1.18359V22.8164C2.04822 23.469 2.57912 24 3.23181 24H5.08056C5.3064 24 5.48949 23.8169 5.48949 23.591C5.48949 23.3652 5.3064 23.1821 5.08056 23.1821H3.23181C3.03015 23.1821 2.86609 23.018 2.86609 22.8164V5.03554H21.1338V7.15199C21.1338 7.37783 21.3169 7.56092 21.5427 7.56092C21.7686 7.56092 21.9517 7.37783 21.9517 7.15199V1.18359C21.9518 0.530999 21.4208 0 20.7681 0ZM6.71621 0.81792V1.60354H4.74109V0.81792H6.71621ZM2.86609 1.18359C2.86609 0.981936 3.03015 0.817873 3.23181 0.817873H3.92321V2.01243C3.92321 2.23828 4.10631 2.42137 4.33215 2.42137H7.12519C7.35104 2.42137 7.53413 2.23828 7.53413 2.01243V0.81792H8.29566V4.21766H2.86609V1.18359ZM15.7043 4.21766V1.75411C15.7043 1.52826 15.5212 1.34517 15.2954 1.34517C15.0695 1.34517 14.8864 1.52826 14.8864 1.75411V4.21762H9.11353V0.81792H20.7681C20.9698 0.81792 21.1339 0.981982 21.1339 1.18364V4.21766H15.7043Z" fill="black"/>
<path d="M17.2813 19.2258C17.4529 19.3727 17.7111 19.3525 17.8579 19.1809C19.0503 17.7876 19.707 16.0089 19.707 14.1725C19.707 9.92273 16.2496 6.46542 12 6.46542C7.75032 6.46542 4.29297 9.92278 4.29297 14.1725C4.29297 18.4221 7.75037 21.8795 12 21.8795C13.7067 21.8795 15.3238 21.333 16.6763 20.2991C16.8558 20.1619 16.89 19.9053 16.7529 19.7259C16.6157 19.5465 16.3591 19.5122 16.1796 19.6494C14.9709 20.5733 13.5256 21.0616 12 21.0616C8.2013 21.0616 5.11084 17.9712 5.11084 14.1725C5.11084 10.3739 8.2013 7.28339 12 7.28339C15.7986 7.28339 18.8891 10.3739 18.8891 14.1725C18.8891 15.814 18.3021 17.4039 17.2364 18.6492C17.0896 18.8208 17.1097 19.0789 17.2813 19.2258Z" fill="black"/>
<path d="M16.3033 10.6368C15.2403 9.34434 13.6718 8.60297 12 8.60297C8.92902 8.60297 6.43054 11.1014 6.43054 14.1725C6.43054 15.1358 6.68053 16.0854 7.15359 16.9185C7.2651 17.1149 7.51476 17.1837 7.71112 17.0722C7.90752 16.9607 7.97634 16.7111 7.86482 16.5147C7.4616 15.8045 7.24846 14.9945 7.24846 14.1724C7.24846 11.5524 9.38001 9.42084 12 9.42084C13.3182 9.42084 14.5613 9.96117 15.4582 10.9138C14.7772 11.858 14.4056 13.0021 14.4056 14.1725C14.4056 15.3428 14.7772 16.4869 15.4582 17.4311C14.5613 18.3838 13.3182 18.9241 12 18.9241C10.7006 18.9241 9.48735 18.4094 8.58379 17.475C8.4268 17.3127 8.16791 17.3083 8.00554 17.4653C7.84316 17.6223 7.83881 17.8812 7.99584 18.0436C9.05483 19.1388 10.4769 19.742 12.0001 19.742C13.6719 19.742 15.2403 19.0007 16.3034 17.7081C16.4276 17.5572 16.4276 17.3396 16.3034 17.1886C15.6071 16.3419 15.2235 15.2708 15.2235 14.1725C15.2235 13.0743 15.607 12.0031 16.3034 11.1565C16.4275 11.0054 16.4275 10.7878 16.3033 10.6368Z" fill="black"/>
<path d="M20.0474 1.39069H16.7759C16.5501 1.39069 16.367 1.57378 16.367 1.79962C16.367 2.02547 16.5501 2.20856 16.7759 2.20856H20.0474C20.2733 2.20856 20.4563 2.02547 20.4563 1.79962C20.4563 1.57378 20.2733 1.39069 20.0474 1.39069Z" fill="black"/>
<path d="M20.0474 2.82693H16.7759C16.5501 2.82693 16.367 3.01003 16.367 3.23587C16.367 3.46171 16.5501 3.64481 16.7759 3.64481H20.0474C20.2733 3.64481 20.4563 3.46171 20.4563 3.23587C20.4563 3.01003 20.2733 2.82693 20.0474 2.82693Z" fill="black"/>
</g>
<defs>
<clipPath id="clip0_9_3677">
<rect width="24" height="24" fill="white"/>
</clipPath>
</defs>
</svg>
