<svg width="24" height="25" viewBox="0 0 24 25" fill="none" xmlns="http://www.w3.org/2000/svg">
<path d="M19.2381 23H17.3333V21.0952C17.3333 19.5172 16.0542 18.2381 14.4762 18.2381H8.7619C7.18395 18.2381 5.90476 19.5172 5.90476 21.0952V23H4V21.0952C4 18.4653 6.13198 16.3333 8.7619 16.3333H14.4762C17.1061 16.3333 19.2381 18.4653 19.2381 21.0952V23ZM11.619 14.4286C8.46313 14.4286 5.90476 11.8702 5.90476 8.71429C5.90476 5.55837 8.46313 3 11.619 3C14.775 3 17.3333 5.55837 17.3333 8.71429C17.3333 11.8702 14.775 14.4286 11.619 14.4286ZM11.619 12.5238C13.723 12.5238 15.4286 10.8182 15.4286 8.71429C15.4286 6.61034 13.723 4.90476 11.619 4.90476C9.5151 4.90476 7.80952 6.61034 7.80952 8.71429C7.80952 10.8182 9.5151 12.5238 11.619 12.5238Z" fill="#787878"/>
</svg>
