<svg width="123" height="28" viewBox="0 0 123 28" fill="none" xmlns="http://www.w3.org/2000/svg">
<rect x="0.5" y="0.5" width="122" height="27" rx="7.5" fill="white" stroke="#004AA4"/>
<path d="M33.7188 12.5653C33.6733 12.1619 33.4858 11.8494 33.1562 11.6278C32.8267 11.4034 32.4119 11.2912 31.9119 11.2912C31.554 11.2912 31.2443 11.348 30.983 11.4616C30.7216 11.5724 30.5185 11.7259 30.3736 11.9219C30.2315 12.1151 30.1605 12.3352 30.1605 12.5824C30.1605 12.7898 30.2088 12.9687 30.3054 13.1193C30.4048 13.2699 30.5341 13.3963 30.6932 13.4986C30.8551 13.598 31.0284 13.6818 31.2131 13.75C31.3977 13.8153 31.5753 13.8693 31.7457 13.9119L32.598 14.1335C32.8764 14.2017 33.1619 14.294 33.4545 14.4105C33.7472 14.527 34.0185 14.6804 34.2685 14.8707C34.5185 15.0611 34.7202 15.2969 34.8736 15.5781C35.0298 15.8594 35.108 16.196 35.108 16.5881C35.108 17.0824 34.9801 17.5213 34.7244 17.9048C34.4716 18.2884 34.1037 18.5909 33.6207 18.8125C33.1406 19.0341 32.5597 19.1449 31.8778 19.1449C31.2244 19.1449 30.6591 19.0412 30.1818 18.8338C29.7045 18.6264 29.331 18.3324 29.0611 17.9517C28.7912 17.5682 28.642 17.1136 28.6136 16.5881H29.9347C29.9602 16.9034 30.0625 17.1662 30.2415 17.3764C30.4233 17.5838 30.6548 17.7386 30.9361 17.8409C31.2202 17.9403 31.5312 17.9901 31.8693 17.9901C32.2415 17.9901 32.5724 17.9318 32.8622 17.8153C33.1548 17.696 33.3849 17.5312 33.5526 17.321C33.7202 17.108 33.804 16.8594 33.804 16.5753C33.804 16.3168 33.7301 16.1051 33.5824 15.9403C33.4375 15.7756 33.2401 15.6392 32.9901 15.5312C32.7429 15.4233 32.4631 15.3281 32.1506 15.2457L31.1193 14.9645C30.4205 14.7741 29.8665 14.4943 29.4574 14.125C29.0511 13.7557 28.848 13.267 28.848 12.6591C28.848 12.1562 28.9844 11.7173 29.2571 11.3423C29.5298 10.9673 29.8991 10.6761 30.3651 10.4688C30.831 10.2585 31.3565 10.1534 31.9418 10.1534C32.5327 10.1534 33.054 10.2571 33.5057 10.4645C33.9602 10.6719 34.3182 10.9574 34.5795 11.321C34.8409 11.6818 34.9773 12.0966 34.9886 12.5653H33.7188ZM38.9002 19.1321C38.2553 19.1321 37.6999 18.9943 37.234 18.7188C36.771 18.4403 36.413 18.0497 36.1602 17.5469C35.9102 17.0412 35.7852 16.4489 35.7852 15.7699C35.7852 15.0994 35.9102 14.5085 36.1602 13.9972C36.413 13.4858 36.7653 13.0866 37.217 12.7997C37.6715 12.5128 38.2028 12.3693 38.8107 12.3693C39.18 12.3693 39.538 12.4304 39.8846 12.5526C40.2312 12.6747 40.5423 12.8665 40.8178 13.1278C41.0934 13.3892 41.3107 13.7287 41.4698 14.1463C41.6289 14.5611 41.7085 15.0653 41.7085 15.6591V16.1108H36.5053V15.1562H40.4599C40.4599 14.821 40.3917 14.5241 40.2553 14.2656C40.119 14.0043 39.9272 13.7983 39.68 13.6477C39.4357 13.4972 39.1488 13.4219 38.8192 13.4219C38.4613 13.4219 38.1488 13.5099 37.8817 13.6861C37.6175 13.8594 37.413 14.0866 37.2681 14.3679C37.1261 14.6463 37.055 14.9489 37.055 15.2756V16.0213C37.055 16.4588 37.1317 16.831 37.2852 17.1378C37.4414 17.4446 37.6587 17.679 37.9371 17.8409C38.2156 18 38.5408 18.0795 38.913 18.0795C39.1545 18.0795 39.3746 18.0455 39.5735 17.9773C39.7724 17.9062 39.9442 17.8011 40.0891 17.6619C40.234 17.5227 40.3448 17.3509 40.4215 17.1463L41.6275 17.3636C41.5309 17.7187 41.3576 18.0298 41.1076 18.2969C40.8604 18.5611 40.5494 18.767 40.1744 18.9148C39.8022 19.0597 39.3775 19.1321 38.9002 19.1321ZM44.527 19.1449C44.1122 19.1449 43.7372 19.0682 43.402 18.9148C43.0668 18.7585 42.8011 18.5327 42.6051 18.2372C42.4119 17.9418 42.3153 17.5795 42.3153 17.1506C42.3153 16.7812 42.3864 16.4773 42.5284 16.2386C42.6705 16 42.8622 15.8111 43.1037 15.6719C43.3452 15.5327 43.6151 15.4276 43.9134 15.3565C44.2116 15.2855 44.5156 15.2315 44.8253 15.1946C45.2173 15.1491 45.5355 15.1122 45.7798 15.0838C46.0241 15.0526 46.2017 15.0028 46.3125 14.9347C46.4233 14.8665 46.4787 14.7557 46.4787 14.6023V14.5724C46.4787 14.2003 46.3736 13.9119 46.1634 13.7074C45.956 13.5028 45.6463 13.4006 45.2344 13.4006C44.8054 13.4006 44.4673 13.4957 44.2202 13.6861C43.9759 13.8736 43.8068 14.0824 43.7131 14.3125L42.5156 14.0398C42.6577 13.642 42.8651 13.321 43.1378 13.0767C43.4134 12.8295 43.7301 12.6506 44.0881 12.5398C44.446 12.4261 44.8224 12.3693 45.2173 12.3693C45.4787 12.3693 45.7557 12.4006 46.0483 12.4631C46.3438 12.5227 46.6193 12.6335 46.875 12.7955C47.1335 12.9574 47.3452 13.1889 47.5099 13.4901C47.6747 13.7884 47.7571 14.1761 47.7571 14.6534V19H46.5128V18.1051H46.4616C46.3793 18.2699 46.2557 18.4318 46.0909 18.5909C45.9261 18.75 45.7145 18.8821 45.456 18.9872C45.1974 19.0923 44.8878 19.1449 44.527 19.1449ZM44.804 18.1222C45.1563 18.1222 45.4574 18.0526 45.7074 17.9134C45.9602 17.7741 46.152 17.5923 46.2827 17.3679C46.4162 17.1406 46.483 16.8977 46.483 16.6392V15.7955C46.4375 15.8409 46.3494 15.8835 46.2188 15.9233C46.0909 15.9602 45.9446 15.9929 45.7798 16.0213C45.6151 16.0469 45.4545 16.071 45.2983 16.0938C45.142 16.1136 45.0114 16.1307 44.9062 16.1449C44.6591 16.1761 44.4332 16.2287 44.2287 16.3026C44.027 16.3764 43.8651 16.483 43.7429 16.6222C43.6236 16.7585 43.5639 16.9403 43.5639 17.1676C43.5639 17.483 43.6804 17.7216 43.9134 17.8835C44.1463 18.0426 44.4432 18.1222 44.804 18.1222ZM48.9542 19V12.4545H50.1857V13.4943H50.2539C50.3732 13.142 50.5835 12.8651 50.8846 12.6634C51.1886 12.4588 51.5323 12.3565 51.9158 12.3565C51.9954 12.3565 52.0891 12.3594 52.1971 12.3651C52.3079 12.3707 52.3945 12.3778 52.457 12.3864V13.6051C52.4059 13.5909 52.315 13.5753 52.1843 13.5582C52.0536 13.5384 51.9229 13.5284 51.7923 13.5284C51.4911 13.5284 51.2227 13.5923 50.9869 13.7202C50.7539 13.8452 50.5692 14.0199 50.4329 14.2443C50.2965 14.4659 50.2283 14.7187 50.2283 15.0028V19H48.9542ZM55.5824 19.1321C54.9489 19.1321 54.4034 18.9886 53.946 18.7017C53.4915 18.4119 53.142 18.0128 52.8977 17.5043C52.6534 16.9957 52.5312 16.4134 52.5312 15.7571C52.5312 15.0923 52.6562 14.5057 52.9062 13.9972C53.1562 13.4858 53.5085 13.0866 53.9631 12.7997C54.4176 12.5128 54.9531 12.3693 55.5696 12.3693C56.0668 12.3693 56.5099 12.4616 56.8991 12.6463C57.2884 12.8281 57.6023 13.0838 57.8409 13.4134C58.0824 13.7429 58.2259 14.1278 58.2713 14.5682H57.0312C56.9631 14.2614 56.8068 13.9972 56.5625 13.7756C56.321 13.554 55.9972 13.4432 55.5909 13.4432C55.2358 13.4432 54.9247 13.5369 54.6577 13.7244C54.3935 13.9091 54.1875 14.1733 54.0398 14.517C53.892 14.858 53.8182 15.2614 53.8182 15.7273C53.8182 16.2045 53.8906 16.6165 54.0355 16.9631C54.1804 17.3097 54.3849 17.5781 54.6491 17.7685C54.9162 17.9588 55.2301 18.054 55.5909 18.054C55.8324 18.054 56.0511 18.0099 56.2472 17.9219C56.446 17.831 56.6122 17.7017 56.7457 17.5341C56.8821 17.3665 56.9773 17.1648 57.0312 16.929H58.2713C58.2259 17.3523 58.0881 17.7301 57.858 18.0625C57.6278 18.3949 57.3196 18.6562 56.9332 18.8466C56.5497 19.0369 56.0994 19.1321 55.5824 19.1321ZM60.408 15.1136V19H59.1339V10.2727H60.391V13.5199H60.4719C60.6254 13.1676 60.8597 12.8878 61.1751 12.6804C61.4904 12.473 61.9023 12.3693 62.4109 12.3693C62.8597 12.3693 63.2518 12.4616 63.587 12.6463C63.9251 12.831 64.1864 13.1065 64.3711 13.473C64.5586 13.8366 64.6523 14.2912 64.6523 14.8366V19H63.3782V14.9901C63.3782 14.5099 63.2546 14.1378 63.0075 13.8736C62.7603 13.6065 62.4165 13.473 61.9762 13.473C61.6751 13.473 61.4052 13.5369 61.1665 13.6648C60.9308 13.7926 60.7447 13.9801 60.6083 14.2273C60.4748 14.4716 60.408 14.767 60.408 15.1136Z" fill="#6B7A85"/>
<g clip-path="url(#clip0_390_4162)">
<path d="M19.8534 19.1469L16.8689 16.1624C17.6822 15.1677 18.0821 13.8984 17.9858 12.6172C17.8895 11.3359 17.3045 10.1406 16.3517 9.27864C15.3989 8.41663 14.1512 7.95383 12.8667 7.98594C11.5822 8.01806 10.3592 8.54264 9.4507 9.45119C8.54215 10.3597 8.01757 11.5827 7.98545 12.8672C7.95334 14.1517 8.41615 15.3994 9.27815 16.3522C10.1402 17.305 11.3354 17.89 12.6167 17.9863C13.8979 18.0826 15.1672 17.6827 16.1619 16.8694L19.1464 19.8539C19.2407 19.945 19.367 19.9954 19.4981 19.9942C19.6292 19.9931 19.7546 19.9405 19.8473 19.8478C19.94 19.7551 19.9926 19.6297 19.9937 19.4986C19.9949 19.3675 19.9445 19.2412 19.8534 19.1469ZM12.9999 17.0004C12.2088 17.0004 11.4354 16.7658 10.7776 16.3263C10.1198 15.8867 9.60712 15.262 9.30437 14.5311C9.00162 13.8002 8.92241 12.9959 9.07675 12.22C9.23109 11.4441 9.61205 10.7314 10.1715 10.172C10.7309 9.61254 11.4436 9.23158 12.2195 9.07724C12.9955 8.9229 13.7997 9.00211 14.5306 9.30486C15.2615 9.60761 15.8862 10.1203 16.3258 10.7781C16.7653 11.4359 16.9999 12.2093 16.9999 13.0004C16.9987 14.0609 16.5769 15.0776 15.827 15.8275C15.0771 16.5774 14.0604 16.9992 12.9999 17.0004Z" fill="#374957"/>
</g>
<defs>
<clipPath id="clip0_390_4162">
<rect width="12" height="12" fill="white" transform="translate(8 8)"/>
</clipPath>
</defs>
</svg>
