<svg width="36" height="36" viewBox="0 0 36 36" fill="none" xmlns="http://www.w3.org/2000/svg">
<rect x="0.5" y="0.5" width="35" height="35" rx="17.5" fill="#DEEBFF"/>
<g clip-path="url(#clip0_494_1130)">
<path d="M25.8045 24.8626L21.8252 20.8833C22.9096 19.557 23.4428 17.8646 23.3144 16.1563C23.1861 14.4479 22.406 12.8543 21.1356 11.7049C19.8652 10.5556 18.2016 9.93852 16.4889 9.98134C14.7763 10.0242 13.1457 10.7236 11.9343 11.935C10.7229 13.1464 10.0234 14.777 9.9806 16.4897C9.93778 18.2023 10.5549 19.8659 11.7042 21.1363C12.8535 22.4067 14.4472 23.1868 16.1556 23.3152C17.8639 23.4435 19.5563 22.9103 20.8825 21.8259L24.8619 25.8053C24.9876 25.9267 25.156 25.9939 25.3308 25.9924C25.5056 25.9909 25.6728 25.9207 25.7964 25.7971C25.92 25.6735 25.9901 25.5063 25.9916 25.3315C25.9932 25.1567 25.926 24.9883 25.8045 24.8626ZM16.6665 22.0006C15.6117 22.0006 14.5805 21.6878 13.7035 21.1018C12.8264 20.5157 12.1428 19.6828 11.7392 18.7082C11.3355 17.7337 11.2299 16.6613 11.4357 15.6268C11.6415 14.5922 12.1494 13.6419 12.8953 12.896C13.6412 12.1501 14.5915 11.6422 15.626 11.4364C16.6606 11.2306 17.733 11.3362 18.7075 11.7399C19.682 12.1436 20.515 12.8272 21.101 13.7042C21.6871 14.5813 21.9999 15.6124 21.9999 16.6673C21.9983 18.0813 21.4359 19.4369 20.436 20.4367C19.4362 21.4366 18.0805 21.999 16.6665 22.0006Z" fill="#004AA4"/>
</g>
<rect x="0.5" y="0.5" width="35" height="35" rx="17.5" stroke="#153051"/>
<defs>
<clipPath id="clip0_494_1130">
<rect width="16" height="16" fill="white" transform="translate(10 10)"/>
</clipPath>
</defs>
</svg>
