<svg width="20" height="21" viewBox="0 0 20 21" fill="none" xmlns="http://www.w3.org/2000/svg">
<mask id="mask0_28_5172" style="mask-type:alpha" maskUnits="userSpaceOnUse" x="0" y="0" width="20" height="21">
<rect y="0.5" width="20" height="20" fill="#D9D9D9"/>
</mask>
<g mask="url(#mask0_28_5172)">
<path d="M13.75 17.1666H14.5833V13.8333H13.75V17.1666ZM14.1667 13C14.2778 13 14.375 12.9583 14.4583 12.875C14.5417 12.7916 14.5833 12.6944 14.5833 12.5833C14.5833 12.4722 14.5417 12.375 14.4583 12.2916C14.375 12.2083 14.2778 12.1666 14.1667 12.1666C14.0556 12.1666 13.9583 12.2083 13.875 12.2916C13.7917 12.375 13.75 12.4722 13.75 12.5833C13.75 12.6944 13.7917 12.7916 13.875 12.875C13.9583 12.9583 14.0556 13 14.1667 13ZM5.83333 12.1666H8.89583C9.04861 11.8472 9.22569 11.5486 9.42708 11.2708C9.62847 10.993 9.85417 10.7361 10.1042 10.5H5.83333V12.1666ZM5.83333 15.5H8.39583C8.35417 15.2222 8.33333 14.9444 8.33333 14.6666C8.33333 14.3888 8.35417 14.1111 8.39583 13.8333H5.83333V15.5ZM4.16667 18.8333C3.70833 18.8333 3.31597 18.6701 2.98958 18.3437C2.66319 18.0173 2.5 17.625 2.5 17.1666V3.83329C2.5 3.37496 2.66319 2.9826 2.98958 2.65621C3.31597 2.32982 3.70833 2.16663 4.16667 2.16663H10.8333L15.8333 7.16663V9.08329C15.5694 8.99996 15.2986 8.93746 15.0208 8.89579C14.7431 8.85413 14.4583 8.83329 14.1667 8.83329V7.99996H10V3.83329H4.16667V17.1666H8.89583C9.04861 17.4861 9.22569 17.7847 9.42708 18.0625C9.62847 18.3402 9.85417 18.5972 10.1042 18.8333H4.16667ZM14.1667 10.5C15.3194 10.5 16.3021 10.9062 17.1146 11.7187C17.9271 12.5312 18.3333 13.5138 18.3333 14.6666C18.3333 15.8194 17.9271 16.802 17.1146 17.6145C16.3021 18.427 15.3194 18.8333 14.1667 18.8333C13.0139 18.8333 12.0312 18.427 11.2188 17.6145C10.4063 16.802 10 15.8194 10 14.6666C10 13.5138 10.4063 12.5312 11.2188 11.7187C12.0312 10.9062 13.0139 10.5 14.1667 10.5Z" fill="#3188E1"/>
</g>
</svg>
