<svg width="40" height="40" viewBox="0 0 40 40" fill="none" xmlns="http://www.w3.org/2000/svg">
<g id="App icon for Debug (blueprint)">
<rect width="40" height="40" rx="20" fill="#FFE512"/>
<g id="Sample Symbol">
<path id="Union" fill-rule="evenodd" clip-rule="evenodd" d="M23.7251 9.16858C24.2542 9.07276 24.7914 9.02485 25.3285 9.02485C30.3873 9.02485 34.5 13.1291 34.5 18.1756C34.5 22.184 31.9265 25.6814 28.0703 26.8951H28.0623C25.9619 27.7255 18.6984 29.9054 12.9742 23.3258C8.88556 18.6227 8.52479 12.2028 12.1725 9.00888C13.4954 7.85107 15.219 7.23623 17.1591 7.24422C17.5359 7.24422 17.9208 7.26817 18.3056 7.31608C19.893 7.40392 21.2719 7.98681 22.2179 8.51382C22.3622 8.58568 22.3462 8.79329 22.2019 8.85717C18.2334 10.5899 15.1789 14.9257 15.3473 19.0379C15.4034 20.2756 15.6199 21.5372 16.157 22.6631C16.7102 23.8049 17.6161 24.6354 18.6503 25.354C19.3638 25.8491 20.2457 26.2643 21.1356 26.1685C22.0175 26.1046 22.8432 25.6654 23.4525 24.9468C24.2061 24.0684 24.5749 22.8467 24.4707 21.5931C24.3825 20.4592 23.9175 19.4212 23.1639 18.6706C22.3943 17.9041 21.4242 17.5288 20.4301 17.6086C18.4018 17.7763 16.9026 19.8284 17.095 22.192V22.2C17.1025 22.3006 17.0418 22.3735 16.966 22.4022C16.8794 22.4349 16.7732 22.4101 16.7262 22.3038C16.3093 21.4015 16.0608 20.2995 16.0127 19.006C16.0047 18.7585 16.0047 18.5109 16.0207 18.2634C16.0448 17.8721 16.0929 17.4809 16.173 17.0976C16.2532 16.7143 16.3574 16.331 16.4857 15.9558C16.614 15.5725 16.7743 15.2052 16.9507 14.8459C17.1271 14.4865 17.3275 14.1352 17.552 13.7918C17.7684 13.4485 18.017 13.1211 18.2735 12.8017C18.5301 12.4823 18.8107 12.1789 19.1073 11.8914C19.4039 11.596 19.7086 11.3245 20.0373 11.069C20.366 10.8135 20.7027 10.5739 21.0554 10.3583C21.4002 10.1348 21.7609 9.94312 22.1377 9.76745C22.2091 9.73782 22.2794 9.70709 22.3494 9.67649C22.4681 9.62461 22.5859 9.5731 22.7069 9.5279C22.7984 9.49078 22.8927 9.45652 22.9875 9.42209C23.117 9.37505 23.2474 9.32771 23.3723 9.27239C23.4124 9.24843 23.4525 9.23246 23.5006 9.21649C23.5407 9.20052 23.5808 9.19254 23.6209 9.18455C23.6529 9.18455 23.693 9.17657 23.7251 9.16858ZM9.21425 17.1535C9.63915 19.4292 10.7375 21.7529 12.4852 23.7651C15.7962 27.5739 19.5963 28.5879 22.7069 28.58C23.7972 28.58 24.8074 28.4602 25.6732 28.2845C25.8336 28.2526 25.9618 28.4362 25.8736 28.58C21.2799 35.9021 8.91762 33.2591 7.16189 23.8529C6.65681 21.13 7.36231 18.8064 8.87753 17.0577C8.98175 16.938 9.18218 16.9938 9.21425 17.1535Z" fill="#008FD1"/>
</g>
</g>
</svg>
