<svg width="32" height="33" viewBox="0 0 32 33" fill="none" xmlns="http://www.w3.org/2000/svg">
<g id="App icon for Debug (blueprint)">
<rect y="0.5" width="32" height="32" rx="16" fill="#FFE512"/>
<g id="Sample Symbol">
<mask id="mask0_355_4548" style="mask-type:alpha" maskUnits="userSpaceOnUse" x="4" y="5" width="24" height="23">
<path id="Union" fill-rule="evenodd" clip-rule="evenodd" d="M18.3968 7.17562C18.8523 7.09314 19.3146 7.0519 19.777 7.0519C24.1315 7.0519 27.6717 10.5848 27.6717 14.9287C27.6717 18.3791 25.4565 21.3896 22.1371 22.4344H22.1302C20.3222 23.1492 14.0699 25.0256 9.14258 19.362C5.62307 15.3136 5.31253 9.78748 8.45248 7.03815C9.59114 6.04152 11.0749 5.51227 12.7449 5.51915C13.0692 5.51915 13.4005 5.53977 13.7317 5.58101C15.0981 5.65661 16.2851 6.15836 17.0994 6.612C17.2236 6.67386 17.2098 6.85257 17.0856 6.90756C13.6696 8.39907 11.0403 12.1313 11.1853 15.671C11.2336 16.7364 11.4199 17.8224 11.8823 18.7915C12.3584 19.7744 13.1382 20.4892 14.0285 21.1078C14.6427 21.534 15.4018 21.8914 16.1678 21.8089C16.9269 21.7539 17.6377 21.3759 18.1622 20.7573C18.8109 20.0012 19.1283 18.9496 19.0386 17.8705C18.9627 16.8945 18.5624 16.001 17.9137 15.3549C17.2512 14.695 16.4162 14.372 15.5605 14.4407C13.8145 14.5851 12.5241 16.3515 12.6897 18.386V18.3929C12.6961 18.4796 12.6439 18.5422 12.5786 18.5669C12.5041 18.5951 12.4127 18.5738 12.3722 18.4822C12.0134 17.7055 11.7995 16.757 11.758 15.6435C11.7511 15.4305 11.7511 15.2174 11.765 15.0043C11.7857 14.6675 11.8271 14.3307 11.8961 14.0008C11.9651 13.6709 12.0548 13.341 12.1652 13.0179C12.2756 12.688 12.4136 12.3718 12.5655 12.0625C12.7173 11.7532 12.8898 11.4508 13.083 11.1553C13.2694 10.8597 13.4833 10.5779 13.7041 10.303C13.925 10.028 14.1665 9.76686 14.4218 9.51942C14.6772 9.26511 14.9394 9.03141 15.2223 8.81147C15.5053 8.59152 15.7951 8.38532 16.0988 8.19974C16.3955 8.00729 16.7061 7.84233 17.0304 7.69112C17.0919 7.66561 17.1524 7.63916 17.2126 7.61282C17.3148 7.56817 17.4162 7.52382 17.5204 7.48492C17.5991 7.45297 17.6803 7.42347 17.7619 7.39384C17.8734 7.35334 17.9856 7.31259 18.0932 7.26497C18.1277 7.24435 18.1622 7.2306 18.2036 7.21686C18.2381 7.20311 18.2726 7.19624 18.3071 7.18936C18.3347 7.18936 18.3692 7.18249 18.3968 7.17562ZM5.90601 14.049C6.27176 16.0079 7.21719 18.008 8.72161 19.7401C11.5717 23.0187 14.8428 23.8916 17.5204 23.8847C18.4589 23.8847 19.3284 23.7816 20.0737 23.6304C20.2118 23.6029 20.3222 23.761 20.2463 23.8847C16.292 30.1876 5.65067 27.9125 4.13935 19.8157C3.70459 17.4719 4.31188 15.4718 5.61616 13.9665C5.70588 13.8634 5.8784 13.9115 5.90601 14.049Z" fill="#D9D9D9"/>
</mask>
<g mask="url(#mask0_355_4548)">
<g id="Ellipse 1" filter="url(#filter0_f_355_4548)">
<ellipse cx="15.2186" cy="7.78191" rx="11.2186" ry="9.52996" fill="#5981F2"/>
</g>
<g id="Ellipse 2" filter="url(#filter1_f_355_4548)">
<path d="M9.95741 9.22878C7.97668 10.2763 6.38795 11.8869 5.39211 13.857C4.39628 15.8271 4.03807 18.0683 4.36279 20.297C4.68751 22.5257 5.68057 24.6419 7.21639 26.378C8.75221 28.1141 10.7618 29.3921 12.9911 30.0504C15.2203 30.7087 17.5691 30.7178 19.7404 30.0764C21.9117 29.4351 23.808 28.1721 25.1895 26.4472C26.571 24.7224 27.3756 22.6131 27.5016 20.3861C27.6277 18.1591 27.0694 15.9144 25.8975 13.936L15.8827 19.2321L9.95741 9.22878Z" fill="#EC74FE"/>
</g>
<g id="Ellipse 3" filter="url(#filter2_f_355_4548)">
<path d="M24.2768 27.672C26.8197 25.7633 28.618 23.052 29.3219 20.0658C30.0258 17.0795 29.585 14.0317 28.0852 11.5153C26.5854 8.9989 24.1339 7.19389 21.2076 6.4514C18.2813 5.70891 15.0895 6.08205 12.2532 7.49821L17.1997 18.2436L24.2768 27.672Z" fill="#7774FE"/>
</g>
<g id="stroke" style="mix-blend-mode:soft-light" opacity="0.33" filter="url(#filter3_f_355_4548)">
<mask id="path-6-inside-1_355_4548" fill="white">
<path fill-rule="evenodd" clip-rule="evenodd" d="M18.3968 7.17562C18.8523 7.09314 19.3146 7.0519 19.777 7.0519C24.1315 7.0519 27.6717 10.5848 27.6717 14.9287C27.6717 18.3791 25.4565 21.3896 22.1371 22.4344H22.1302C20.3222 23.1492 14.0699 25.0256 9.14258 19.362C5.62307 15.3136 5.31253 9.78748 8.45248 7.03815C9.59114 6.04152 11.0749 5.51227 12.7449 5.51915C13.0692 5.51915 13.4005 5.53977 13.7317 5.58101C15.0981 5.65661 16.2851 6.15836 17.0994 6.612C17.2236 6.67386 17.2098 6.85257 17.0856 6.90756C13.6696 8.39907 11.0403 12.1313 11.1853 15.671C11.2336 16.7364 11.4199 17.8224 11.8823 18.7915C12.3584 19.7744 13.1382 20.4892 14.0285 21.1078C14.6427 21.534 15.4018 21.8914 16.1678 21.8089C16.9269 21.7539 17.6377 21.3759 18.1622 20.7573C18.8109 20.0012 19.1283 18.9496 19.0386 17.8705C18.9627 16.8945 18.5624 16.001 17.9137 15.3549C17.2512 14.695 16.4162 14.372 15.5605 14.4407C13.8145 14.5851 12.5241 16.3515 12.6897 18.386V18.3929C12.6961 18.4796 12.6439 18.5422 12.5786 18.5669C12.5041 18.5951 12.4127 18.5738 12.3722 18.4822C12.0134 17.7055 11.7995 16.757 11.758 15.6435C11.7511 15.4305 11.7511 15.2174 11.765 15.0043C11.7857 14.6675 11.8271 14.3307 11.8961 14.0008C11.9651 13.6709 12.0548 13.341 12.1652 13.0179C12.2756 12.688 12.4136 12.3718 12.5655 12.0625C12.7173 11.7532 12.8898 11.4508 13.083 11.1553C13.2694 10.8597 13.4833 10.5779 13.7041 10.303C13.925 10.028 14.1665 9.76686 14.4218 9.51942C14.6772 9.26511 14.9394 9.03141 15.2223 8.81147C15.5053 8.59152 15.7951 8.38532 16.0988 8.19974C16.3955 8.00729 16.7061 7.84233 17.0304 7.69112C17.0919 7.66561 17.1524 7.63916 17.2126 7.61282C17.3148 7.56817 17.4162 7.52382 17.5204 7.48492C17.5991 7.45297 17.6803 7.42347 17.7619 7.39384C17.8734 7.35334 17.9856 7.31259 18.0932 7.26497C18.1277 7.24435 18.1622 7.2306 18.2036 7.21686C18.2381 7.20311 18.2726 7.19624 18.3071 7.18936C18.3347 7.18936 18.3692 7.18249 18.3968 7.17562ZM5.90601 14.049C6.27176 16.0079 7.21719 18.008 8.72161 19.7401C11.5717 23.0187 14.8428 23.8916 17.5204 23.8847C18.4589 23.8847 19.3284 23.7816 20.0737 23.6304C20.2118 23.6029 20.3222 23.761 20.2463 23.8847C16.292 30.1876 5.65067 27.9125 4.13935 19.8157C3.70459 17.4719 4.31188 15.4718 5.61616 13.9665C5.70588 13.8634 5.8784 13.9115 5.90601 14.049Z"/>
</mask>
<path d="M18.3968 7.17562L18.1592 5.86362L18.1166 5.87133L18.0746 5.88179L18.3968 7.17562ZM22.1371 22.4344V23.7677H22.342L22.5374 23.7062L22.1371 22.4344ZM22.1302 22.4344V21.1011H21.8762L21.64 21.1944L22.1302 22.4344ZM9.14258 19.362L8.13633 20.2368L8.13665 20.2372L9.14258 19.362ZM8.45248 7.03815L7.57432 6.03485L7.57413 6.03501L8.45248 7.03815ZM12.7449 5.51915L12.7394 6.85248H12.7449V5.51915ZM13.7317 5.58101L13.567 6.90412L13.6124 6.90978L13.6581 6.9123L13.7317 5.58101ZM17.0994 6.612L16.4505 7.77679L16.4775 7.79179L16.505 7.80553L17.0994 6.612ZM17.0856 6.90756L17.6191 8.12951L17.6253 8.12678L17.0856 6.90756ZM11.1853 15.671L9.85304 15.7256L9.8533 15.7314L11.1853 15.671ZM11.8823 18.7915L10.6789 19.3657L10.6823 19.3728L11.8823 18.7915ZM14.0285 21.1078L13.2676 22.2028L13.2684 22.2033L14.0285 21.1078ZM16.1678 21.8089L16.0715 20.4791L16.0482 20.4808L16.025 20.4832L16.1678 21.8089ZM18.1622 20.7573L17.1502 19.8891L17.1452 19.895L18.1622 20.7573ZM19.0386 17.8705L17.7093 17.9739L17.7098 17.981L19.0386 17.8705ZM17.9137 15.3549L16.9728 16.2996L16.9728 16.2996L17.9137 15.3549ZM15.5605 14.4407L15.4537 13.1117L15.4506 13.1119L15.5605 14.4407ZM12.6897 18.386H14.023V18.3318L14.0186 18.2778L12.6897 18.386ZM12.6897 18.3929H11.3563V18.4424L11.36 18.4918L12.6897 18.3929ZM12.5786 18.5669L12.1068 17.3198L12.1068 17.3198L12.5786 18.5669ZM12.3722 18.4822L13.5919 17.9434L13.5873 17.9332L13.5826 17.923L12.3722 18.4822ZM11.758 15.6435L10.4254 15.6867L10.4256 15.6931L11.758 15.6435ZM11.765 15.0043L13.0955 15.0905L13.0958 15.0861L11.765 15.0043ZM11.8961 14.0008L13.2012 14.2738L13.2012 14.2738L11.8961 14.0008ZM12.1652 13.0179L13.4269 13.4492L13.4296 13.4411L12.1652 13.0179ZM13.083 11.1553L14.199 11.8849L14.2051 11.8757L14.2109 11.8663L13.083 11.1553ZM13.7041 10.303L14.7437 11.1379L14.7437 11.1379L13.7041 10.303ZM14.4218 9.51942L15.3497 10.4769L15.3563 10.4706L15.3627 10.4641L14.4218 9.51942ZM15.2223 8.81147L16.0407 9.86415L16.0407 9.86415L15.2223 8.81147ZM16.0988 8.19974L16.7941 9.33742L16.8093 9.32811L16.8243 9.31841L16.0988 8.19974ZM17.0304 7.69112L16.5193 6.45962L16.4929 6.47058L16.467 6.48266L17.0304 7.69112ZM17.2126 7.61282L17.7467 8.83452L17.7467 8.83452L17.2126 7.61282ZM17.5204 7.48492L17.9869 8.73397L18.0044 8.72743L18.0217 8.72041L17.5204 7.48492ZM17.7619 7.39384L18.2171 8.64706L18.2171 8.64706L17.7619 7.39384ZM18.0932 7.26497L18.6329 8.48419L18.7073 8.45125L18.7771 8.40951L18.0932 7.26497ZM18.2036 7.21686L18.6237 8.48228L18.6608 8.46997L18.697 8.45551L18.2036 7.21686ZM18.3071 7.18936V5.85603H18.1756L18.0466 5.88172L18.3071 7.18936ZM8.72161 19.7401L7.71497 20.6144L7.71534 20.6149L8.72161 19.7401ZM5.90601 14.049L7.21669 13.8043L7.21503 13.7954L7.21325 13.7865L5.90601 14.049ZM17.5204 23.8847L17.5204 22.5514L17.5169 22.5514L17.5204 23.8847ZM20.0737 23.6304L19.8133 22.3228L19.8086 22.3237L20.0737 23.6304ZM20.2463 23.8847L21.3758 24.5933L21.3827 24.582L20.2463 23.8847ZM4.13935 19.8157L2.82838 20.0589L2.82866 20.0604L4.13935 19.8157ZM5.61616 13.9665L4.61032 13.0913L4.60849 13.0934L5.61616 13.9665ZM19.777 5.71856C19.2355 5.71856 18.6936 5.76685 18.1592 5.86362L18.6344 8.48761C19.011 8.41942 19.3938 8.38523 19.777 8.38523V5.71856ZM29.0051 14.9287C29.0051 9.84563 24.8651 5.71856 19.777 5.71856V8.38523C23.3979 8.38523 26.3384 11.3239 26.3384 14.9287H29.0051ZM22.5374 23.7062C26.4076 22.4881 29.0051 18.9661 29.0051 14.9287H26.3384C26.3384 17.7922 24.5054 20.2912 21.7368 21.1626L22.5374 23.7062ZM22.1302 23.7677H22.1371V21.1011H22.1302V23.7677ZM8.13665 20.2372C13.6551 26.5803 20.6883 24.4382 22.6205 23.6743L21.64 21.1944C19.9561 21.8602 14.4846 23.471 10.1485 18.4869L8.13665 20.2372ZM7.57413 6.03501C3.66256 9.45997 4.35125 15.8829 8.13633 20.2368L10.1488 18.4872C6.89489 14.7443 6.96249 10.115 9.33082 8.04129L7.57413 6.03501ZM12.7504 4.18582C10.7878 4.17775 8.98078 4.80382 7.57432 6.03485L9.33063 8.04145C10.2015 7.27922 11.3619 6.8468 12.7394 6.85247L12.7504 4.18582ZM13.8965 4.25789C13.5116 4.20997 13.1253 4.18581 12.7449 4.18581V6.85248C13.0132 6.85248 13.2894 6.86956 13.567 6.90412L13.8965 4.25789ZM17.7483 5.44721C16.832 4.93675 15.4445 4.3404 13.8054 4.24971L13.6581 6.9123C14.7518 6.97282 15.7382 7.37998 16.4505 7.77679L17.7483 5.44721ZM17.6253 8.12678C18.645 7.67541 18.96 6.04906 17.6938 5.41848L16.505 7.80553C16.0344 7.57115 15.8308 7.09455 15.8546 6.68488C15.8775 6.29218 16.1098 5.88139 16.5459 5.68834L17.6253 8.12678ZM12.5175 15.6165C12.3985 12.7095 14.6262 9.43629 17.6191 8.12949L16.5521 5.68562C12.713 7.36185 9.68222 11.5531 9.85305 15.7256L12.5175 15.6165ZM13.0857 18.2174C12.7271 17.4659 12.5609 16.5737 12.5172 15.6106L9.8533 15.7314C9.90625 16.8991 10.1127 18.1789 10.6789 19.3657L13.0857 18.2174ZM14.7893 20.0129C13.9855 19.4543 13.4157 18.8987 13.0822 18.2102L10.6823 19.3728C11.3011 20.6502 12.291 21.5242 13.2676 22.2028L14.7893 20.0129ZM16.025 20.4832C15.7416 20.5138 15.3168 20.3789 14.7886 20.0124L13.2684 22.2033C13.9686 22.6891 15.062 23.269 16.3105 23.1346L16.025 20.4832ZM17.1452 19.895C16.8317 20.2648 16.4427 20.4522 16.0715 20.4791L16.2641 23.1388C17.4111 23.0557 18.4437 22.487 19.1792 21.6196L17.1452 19.895ZM17.7098 17.981C17.7731 18.7414 17.5437 19.4305 17.1502 19.8891L19.1741 21.6255C20.078 20.5719 20.4835 19.1578 20.3673 17.76L17.7098 17.981ZM16.9728 16.2996C17.3799 16.7051 17.6563 17.293 17.7093 17.9739L20.3679 17.7671C20.2691 16.496 19.7449 15.2969 18.8546 14.4102L16.9728 16.2996ZM15.6672 15.7698C16.0989 15.7351 16.5603 15.8887 16.9728 16.2996L18.8546 14.4102C17.9421 13.5013 16.7335 13.0089 15.4537 13.1117L15.6672 15.7698ZM14.0186 18.2778C13.8971 16.7848 14.8357 15.8385 15.6703 15.7695L15.4506 13.1119C12.7934 13.3316 11.151 15.9182 11.3607 18.4942L14.0186 18.2778ZM14.023 18.3929V18.386H11.3563V18.3929H14.023ZM13.0504 19.814C13.5906 19.6097 14.0755 19.0487 14.0193 18.294L11.36 18.4918C11.3168 17.9104 11.6972 17.4748 12.1068 17.3198L13.0504 19.814ZM11.1526 19.021C11.5317 19.8792 12.4421 20.0441 13.0504 19.814L12.1068 17.3198C12.3337 17.234 12.6191 17.2099 12.9098 17.3134C13.2247 17.4255 13.4671 17.6611 13.5919 17.9434L11.1526 19.021ZM10.4256 15.6931C10.4722 16.9454 10.7148 18.0738 11.1618 19.0415L13.5826 17.923C13.312 17.3373 13.1267 16.5687 13.0905 15.594L10.4256 15.6931ZM10.4344 14.9181C10.417 15.1874 10.4176 15.446 10.4254 15.6867L13.0907 15.6004C13.0847 15.4149 13.0853 15.2474 13.0955 15.0905L10.4344 14.9181ZM10.591 13.7278C10.5068 14.1305 10.4581 14.5322 10.4341 14.9225L13.0958 15.0861C13.1132 14.8029 13.1474 14.531 13.2012 14.2738L10.591 13.7278ZM10.9035 12.5867C10.7749 12.9631 10.6709 13.346 10.591 13.7278L13.2012 14.2738C13.2593 13.9958 13.3347 13.7188 13.4269 13.4492L10.9035 12.5867ZM11.3686 11.475C11.1998 11.8189 11.0357 12.1918 10.9008 12.5948L13.4296 13.4411C13.5156 13.1842 13.6275 12.9248 13.7624 12.6501L11.3686 11.475ZM11.967 10.4257C11.7447 10.7657 11.545 11.1156 11.3686 11.475L13.7624 12.6501C13.8896 12.3909 14.0349 12.1359 14.199 11.8849L11.967 10.4257ZM12.6646 9.46801C12.431 9.75885 12.181 10.086 11.9551 10.4442L14.2109 11.8663C14.3578 11.6334 14.5356 11.397 14.7437 11.1379L12.6646 9.46801ZM13.4939 8.56192C13.204 8.84292 12.9242 9.14477 12.6646 9.46801L14.7437 11.1379C14.9257 10.9113 15.129 10.6908 15.3497 10.4769L13.4939 8.56192ZM14.404 7.75878C14.074 8.01535 13.771 8.28575 13.4809 8.57472L15.3627 10.4641C15.5833 10.2445 15.8048 10.0475 16.0407 9.86415L14.404 7.75878ZM15.4035 7.06206C15.0474 7.27968 14.716 7.51626 14.404 7.75878L16.0407 9.86415C16.2946 9.66678 16.5429 9.49096 16.7941 9.33742L15.4035 7.06206ZM16.467 6.48266C16.1019 6.65286 15.7344 6.84687 15.3733 7.08108L16.8243 9.31841C17.0567 9.1677 17.3102 9.0318 17.5938 8.89957L16.467 6.48266ZM16.6786 6.39112C16.6165 6.41826 16.5673 6.43969 16.5193 6.45962L17.5415 8.92262C17.6164 8.89153 17.6883 8.86006 17.7467 8.83452L16.6786 6.39112ZM17.0539 6.23586C16.9099 6.28964 16.7752 6.34888 16.6786 6.39112L17.7467 8.83452C17.8544 8.78745 17.9226 8.758 17.9869 8.73397L17.0539 6.23586ZM17.3067 6.14061C17.2293 6.16873 17.1246 6.20659 17.019 6.24942L18.0217 8.72041C18.0736 8.69934 18.1313 8.67821 18.2171 8.64706L17.3067 6.14061ZM17.5535 6.04575C17.4946 6.0718 17.4257 6.09738 17.3067 6.14061L18.2171 8.64706C18.321 8.60931 18.4765 8.55339 18.6329 8.48419L17.5535 6.04575ZM17.7835 5.95144C17.6997 5.97926 17.5623 6.02891 17.4092 6.12043L18.7771 8.40951C18.693 8.45979 18.6247 8.48195 18.6237 8.48228L17.7835 5.95144ZM18.0466 5.88172C18.0276 5.88551 17.8753 5.9124 17.7101 5.9782L18.697 8.45551C18.6434 8.47688 18.6003 8.48869 18.5775 8.49436C18.559 8.49896 18.5454 8.50142 18.5676 8.49701L18.0466 5.88172ZM18.0746 5.88179C18.084 5.87946 18.1045 5.87456 18.1336 5.86973C18.1572 5.86582 18.2205 5.85603 18.3071 5.85603V8.5227C18.5062 8.5227 18.6726 8.481 18.719 8.46944L18.0746 5.88179ZM9.72825 18.8658C8.37337 17.3059 7.53725 15.5211 7.21669 13.8043L4.59532 14.2937C5.00627 16.4946 6.06102 18.7102 7.71497 20.6144L9.72825 18.8658ZM17.5169 22.5514C15.1611 22.5574 12.284 21.8057 9.72788 18.8653L7.71534 20.6149C10.8595 24.2317 14.5245 25.2257 17.5238 25.218L17.5169 22.5514ZM19.8086 22.3237C19.1435 22.4586 18.3629 22.5514 17.5204 22.5514V25.2181C18.5549 25.2181 19.5133 25.1046 20.3388 24.9371L19.8086 22.3237ZM21.3827 24.582C22.0502 23.4941 21.1235 22.0618 19.8133 22.3228L20.3342 24.938C19.3 25.1441 18.5941 24.0279 19.1098 23.1874L21.3827 24.582ZM2.82866 20.0604C3.69303 24.6912 7.17897 27.6485 10.969 28.5474C14.7462 29.4433 19.0333 28.3269 21.3757 24.5933L19.1168 23.1761C17.5049 25.7454 14.4943 26.6429 11.5844 25.9527C8.68737 25.2656 6.09699 23.037 5.45005 19.5711L2.82866 20.0604ZM4.60849 13.0934C3.03114 14.9138 2.32172 17.3275 2.82838 20.0589L5.45032 19.5725C5.08746 17.6164 5.59261 16.0298 6.62384 14.8397L4.60849 13.0934ZM7.21325 13.7865C6.98074 12.6286 5.46951 12.1039 4.61032 13.0913L6.62201 14.8418C5.94224 15.623 4.77607 15.1944 4.59877 14.3115L7.21325 13.7865Z" fill="white" mask="url(#path-6-inside-1_355_4548)"/>
</g>
</g>
</g>
</g>
<defs>
<filter id="filter0_f_355_4548" x="-4" y="-9.74805" width="38.4373" height="35.0598" filterUnits="userSpaceOnUse" color-interpolation-filters="sRGB">
<feFlood flood-opacity="0" result="BackgroundImageFix"/>
<feBlend mode="normal" in="SourceGraphic" in2="BackgroundImageFix" result="shape"/>
<feGaussianBlur stdDeviation="4" result="effect1_foregroundBlur_355_4548"/>
</filter>
<filter id="filter1_f_355_4548" x="-9.087" y="-4.10458" width="49.9394" height="47.9887" filterUnits="userSpaceOnUse" color-interpolation-filters="sRGB">
<feFlood flood-opacity="0" result="BackgroundImageFix"/>
<feBlend mode="normal" in="SourceGraphic" in2="BackgroundImageFix" result="shape"/>
<feGaussianBlur stdDeviation="6.66667" result="effect1_foregroundBlur_355_4548"/>
</filter>
<filter id="filter2_f_355_4548" x="-1.08017" y="-7.25521" width="44.0626" height="48.2604" filterUnits="userSpaceOnUse" color-interpolation-filters="sRGB">
<feFlood flood-opacity="0" result="BackgroundImageFix"/>
<feBlend mode="normal" in="SourceGraphic" in2="BackgroundImageFix" result="shape"/>
<feGaussianBlur stdDeviation="6.66667" result="effect1_foregroundBlur_355_4548"/>
</filter>
<filter id="filter3_f_355_4548" x="2.66667" y="4.18571" width="26.3384" height="24.6562" filterUnits="userSpaceOnUse" color-interpolation-filters="sRGB">
<feFlood flood-opacity="0" result="BackgroundImageFix"/>
<feBlend mode="normal" in="SourceGraphic" in2="BackgroundImageFix" result="shape"/>
<feGaussianBlur stdDeviation="0.666667" result="effect1_foregroundBlur_355_4548"/>
</filter>
</defs>
</svg>
