<svg width="24" height="24" viewBox="0 0 24 24" fill="none" xmlns="http://www.w3.org/2000/svg">
<g clip-path="url(#clip0_9_3732)">
<path d="M21.6 20.5895H7.45261L6.44208 8.96841H22.6105L21.6 20.5895Z" fill="#AF7AAE"/>
<path d="M22.6105 7.95789V8.96842L22.5227 9.97895H6.52998L6.44214 8.96842V7.95789H22.6105Z" fill="#8E5B8E"/>
<path d="M23.621 6.94739V7.95792C23.621 8.51602 23.1687 8.96845 22.6105 8.96845H6.44211C5.88402 8.96845 5.43158 8.51606 5.43158 7.95792V6.94739C5.43158 6.3893 5.88397 5.93686 6.44211 5.93686H22.6105C23.1686 5.93686 23.621 6.38925 23.621 6.94739Z" fill="#D199D1"/>
<path d="M22.1053 20.0842C22.1053 20.9213 21.4267 21.6 20.5895 21.6H17.4713C17.5272 21.7581 17.5579 21.9281 17.5579 22.1053C17.5579 22.9424 16.8793 23.6211 16.0421 23.6211H1.89476C1.05758 23.6211 0.378967 22.9424 0.378967 22.1053C0.378967 21.2681 1.05758 20.5895 1.89476 20.5895H5.01294C4.95706 20.4314 4.92631 20.2614 4.92631 20.0842C4.92631 19.2471 5.60492 18.5684 6.44211 18.5684H20.5895C21.4267 18.5684 22.1053 19.2471 22.1053 20.0842ZM17.9636 7.44778C18.1853 7.46935 18.3932 7.41788 18.5685 7.31635V9.44949C18.5685 9.99746 18.9946 10.4641 19.5422 10.4835C20.117 10.504 20.5895 10.044 20.5895 9.47367V5.93681C20.5895 5.65777 20.3633 5.43155 20.0843 5.43155H19.0737H18.5685H17.558C17.2789 5.43155 17.0527 5.65777 17.0527 5.93681V6.41911C17.0526 6.94294 17.4422 7.39706 17.9636 7.44778Z" fill="#A7E5CB"/>
<path d="M8.46314 20.0842C8.46314 20.3633 8.23692 20.5895 7.95787 20.5895H6.44207C6.16303 20.5895 5.93681 20.3633 5.93681 20.0842C5.93681 19.8052 6.16303 19.5789 6.44207 19.5789H7.95787C8.23697 19.5789 8.46314 19.8052 8.46314 20.0842ZM5.93686 21.6H1.89473C1.61568 21.6 1.38947 21.8262 1.38947 22.1053C1.38947 22.3843 1.61568 22.6105 1.89473 22.6105H5.93686C6.2159 22.6105 6.44212 22.3843 6.44212 22.1053C6.44212 21.8262 6.2159 21.6 5.93686 21.6Z" fill="#D7F3FF"/>
<path d="M16.5474 17.5579H19.579C21.8114 17.5579 23.6211 19.3676 23.6211 21.6V23.1158C23.6211 23.3949 23.3949 23.6211 23.1158 23.6211H13.5158C11.2834 23.6211 9.47369 21.8114 9.47369 19.5789V16.0421C9.47369 15.484 9.92608 15.0316 10.4842 15.0316H14.5264C15.0844 15.0316 15.5369 15.4839 15.5369 16.0421V16.5474C15.5369 17.1055 15.9893 17.5579 16.5474 17.5579Z" fill="#A89B80"/>
<path d="M23.6211 21.6V23.6211H15.5369C13.3045 23.6211 11.4948 21.8114 11.4948 19.5789V16.0421C11.4948 15.484 11.9471 15.0316 12.5053 15.0316H14.5263C15.0844 15.0316 15.5369 15.4839 15.5369 16.0421V16.5474C15.5369 17.1054 15.9893 17.5579 16.5474 17.5579H18.5685H19.579C21.8114 17.5579 23.6211 19.3676 23.6211 21.6Z" fill="#C1B291"/>
<path d="M23.6211 21.6V23.621H17.5579C15.3254 23.621 13.5157 21.8113 13.5157 19.5789V17.5579C13.5157 19.7903 15.3254 21.6 17.5579 21.6H23.6211Z" fill="#A89B80"/>
<path d="M23.079 19.5789H17.5579C15.3254 19.5789 13.5157 17.7692 13.5157 15.5368V15.0316H14.5263C15.0844 15.0316 15.5368 15.4839 15.5368 16.0421V16.5474C15.5368 17.1054 15.9892 17.5579 16.5473 17.5579H19.5789C21.0748 17.5579 22.38 18.3711 23.079 19.5789Z" fill="#DBCBA1"/>
<path d="M13.5158 1.38947V12.5053V13.5158H11.4948V12.5053V1.38947C11.4948 0.831374 11.9471 0.378937 12.5053 0.378937C13.0634 0.378937 13.5158 0.831374 13.5158 1.38947Z" fill="#91F18B"/>
<path d="M12.5053 1.38947V13.5158H11.4948V1.38947C11.4948 0.831374 11.9471 0.378937 12.5053 0.378937C12.6895 0.378937 12.8618 0.429046 13.0105 0.515202C12.7088 0.690046 12.5053 1.01569 12.5053 1.38947Z" fill="#6BAF6E"/>
<path d="M16.0421 14.5263C16.0421 15.0844 15.5897 15.5369 15.0316 15.5369H9.97891C9.42082 15.5369 8.96838 15.0845 8.96838 14.5263C8.96838 13.9682 9.42077 13.5158 9.97891 13.5158H10.9894V13.0105C10.9894 12.7315 11.2157 12.5053 11.4947 12.5053H13.5158C13.7948 12.5053 14.021 12.7315 14.021 13.0105V13.5158H15.0316C15.5897 13.5158 16.0421 13.9682 16.0421 14.5263Z" fill="#FFC248"/>
<path d="M16.0421 14.5263H8.96838C8.96838 13.9682 9.42077 13.5158 9.97891 13.5158H15.0315C15.5897 13.5158 16.0421 13.9682 16.0421 14.5263Z" fill="#FFFF63"/>
<path d="M10.3579 23.6211C10.3579 23.8304 10.1882 24 9.97894 24H1.89473C0.849938 24 0 23.1501 0 22.1053C0 21.0605 0.849938 20.2105 1.89473 20.2105H4.43869C4.46728 20.2105 4.49198 20.2003 4.51219 20.18C4.52541 20.1667 4.54758 20.1375 4.54739 20.0908V20.0842C4.54739 19.0394 5.39733 18.1895 6.44213 18.1895H7.95792C8.16722 18.1895 8.33686 18.3591 8.33686 18.5684C8.33686 18.7778 8.16717 18.9473 7.95792 18.9473H6.44213C5.81527 18.9473 5.30527 19.4573 5.30527 20.0842V20.0895C5.30611 20.3257 5.21508 20.5483 5.049 20.715C4.88616 20.8784 4.66941 20.9684 4.43864 20.9684H1.89473C1.26787 20.9684 0.757875 21.4784 0.757875 22.1053C0.757875 22.7321 1.26783 23.2421 1.89473 23.2421H9.97894C10.1882 23.2421 10.3579 23.4117 10.3579 23.6211ZM17.0526 9.34739C17.2619 9.34739 17.4315 9.1778 17.4315 8.96845C17.4315 8.75911 17.2619 8.58952 17.0526 8.58952H15.0315C14.8223 8.58952 14.6526 8.75911 14.6526 8.96845C14.6526 9.1778 14.8223 9.34739 15.0315 9.34739H17.0526ZM23.4163 19.4062C23.7875 20.053 24 20.8022 24 21.6V23.1158C24 23.6033 23.6033 24 23.1158 24H13.5158C11.078 24 9.09473 22.0167 9.09473 19.5789V16.0421C9.09473 15.9064 9.11461 15.7719 9.15314 15.6431C8.81138 15.3897 8.58947 14.9835 8.58947 14.5263C8.58947 13.7602 9.21277 13.1368 9.97894 13.1368H10.6105V13.0105C10.6105 12.6584 10.8173 12.3538 11.1158 12.2116V9.3473H6.85547L7.52264 17.0198C7.54078 17.2282 7.38647 17.412 7.17797 17.4301C6.96928 17.4491 6.78572 17.294 6.76758 17.0854L6.0908 9.30234C5.49422 9.14625 5.0527 8.60264 5.0527 7.95783V6.9473C5.0527 6.18117 5.676 5.55783 6.44217 5.55783H11.1158V1.38947C11.1158 0.623344 11.7391 0 12.5053 0C13.2714 0 13.8947 0.623344 13.8947 1.38947V12.2116C14.1932 12.3538 14.4 12.6585 14.4 13.0105V13.1369H15.0316C15.7978 13.1369 16.4211 13.7602 16.4211 14.5263C16.4211 14.9835 16.1992 15.3898 15.8574 15.6432C15.8959 15.772 15.9158 15.9065 15.9158 16.0421V16.5474C15.9158 16.8957 16.1991 17.179 16.5474 17.179H19.579C21.2051 17.179 22.629 18.0615 23.3969 19.3727C23.4039 19.3835 23.4104 19.3946 23.4163 19.4062ZM11.8737 12.1263H13.1368V1.38947C13.1368 1.04119 12.8535 0.757875 12.5052 0.757875C12.1569 0.757875 11.8736 1.04119 11.8736 1.38947L11.8737 12.1263ZM11.1158 8.58947V6.3158H6.44213C6.09384 6.3158 5.81053 6.59911 5.81053 6.94739V7.95792C5.81053 8.30522 6.0923 8.58792 6.43922 8.58952C6.44161 8.58956 6.44405 8.58956 6.44648 8.58952L11.1158 8.58947ZM23.2421 21.9789H17.5579C16.8082 21.9789 16.0674 21.7878 15.4157 21.4261C15.2327 21.3247 15.1667 21.094 15.2683 20.911C15.3698 20.728 15.6004 20.6618 15.7835 20.7635C16.323 21.0629 16.9366 21.2212 17.558 21.2212H23.2227C23.1763 20.7712 23.048 20.345 22.8531 19.958H17.5579C16.8082 19.958 16.0673 19.7668 15.4155 19.4051C15.2325 19.3035 15.1665 19.0729 15.268 18.89C15.3695 18.7069 15.6002 18.641 15.7832 18.7425C16.3229 19.0419 16.9365 19.2002 17.5579 19.2002H22.3442C21.672 18.4269 20.6816 17.9371 19.5789 17.9371H16.5473C15.7812 17.9371 15.1579 17.3137 15.1579 16.5476V16.0424C15.1579 15.9982 15.1533 15.9543 15.1442 15.9115C15.1071 15.9145 15.0695 15.916 15.0315 15.916H14.5263C14.317 15.916 14.1473 15.7464 14.1473 15.5371C14.1473 15.3278 14.317 15.1582 14.5263 15.1582H15.0315C15.3798 15.1582 15.6631 14.8748 15.6631 14.5266C15.6631 14.1783 15.3798 13.895 15.0315 13.895H14.021C13.8117 13.895 13.6421 13.7254 13.6421 13.516V13.0106C13.6421 12.941 13.5854 12.8843 13.5157 12.8843H11.4947C11.4251 12.8843 11.3684 12.9409 11.3684 13.0106V13.5159C11.3684 13.7252 11.1987 13.8948 10.9894 13.8948H9.97889C9.63061 13.8948 9.3473 14.1781 9.3473 14.5264C9.3473 14.8747 9.63061 15.158 9.97889 15.158H13.0105C13.2198 15.158 13.3894 15.3276 13.3894 15.537C13.3894 15.7463 13.2197 15.9159 13.0105 15.9159H9.97889C9.94102 15.9159 9.90338 15.9144 9.8662 15.9113C9.8572 15.9542 9.85256 15.9981 9.85256 16.0422V19.5791C9.85256 21.4288 11.2308 22.9628 13.0141 23.208C11.8674 22.4084 11.1157 21.0798 11.1157 19.579V17.0527C11.1157 16.8433 11.2854 16.6737 11.4946 16.6737C11.7039 16.6737 11.8736 16.8433 11.8736 17.0527V19.579C11.8736 21.4287 13.2518 22.9627 15.0352 23.208C13.8885 22.4084 13.1367 21.0798 13.1367 19.579V17.0527C13.1367 16.8433 13.3064 16.6737 13.5157 16.6737C13.7249 16.6737 13.8946 16.8433 13.8946 17.0527V19.579C13.8946 21.5989 15.5378 23.2421 17.5577 23.2421H23.1156C23.1852 23.2421 23.2419 23.1855 23.2419 23.1158V21.9789H23.2421ZM24 6.94739V7.95792C24 8.60273 23.5584 9.14634 22.9619 9.30239L22.2851 17.0855C22.268 17.2828 22.1025 17.4317 21.9081 17.4317C21.897 17.4317 21.8859 17.4312 21.8748 17.4303C21.6663 17.4122 21.512 17.2284 21.5301 17.0199L22.1973 9.34744H20.9685V9.47377C20.9685 9.8543 20.8177 10.2094 20.5439 10.4736C20.2701 10.7378 19.9089 10.875 19.5288 10.8623C18.7778 10.8356 18.1896 10.215 18.1896 9.44953V7.82592C18.1028 7.83384 18.015 7.83361 17.927 7.82503C17.2125 7.75547 16.6738 7.15106 16.6738 6.4192V6.31589H15.0316C14.8223 6.31589 14.6527 6.1463 14.6527 5.93695C14.6527 5.72761 14.8224 5.55802 15.0316 5.55802H16.7591C16.9012 5.25956 17.2059 5.05275 17.558 5.05275H20.0843C20.4363 5.05275 20.741 5.25956 20.8831 5.55802H22.6106C23.3767 5.55788 24 6.18122 24 6.94739ZM20.2105 5.93686C20.2105 5.8672 20.1539 5.81053 20.0842 5.81053H17.5579C17.4883 5.81053 17.4315 5.86716 17.4315 5.93686V6.41916C17.4315 6.75342 17.6813 7.03964 18.0002 7.07067C18.1326 7.08361 18.2634 7.05511 18.3785 6.98845C18.4372 6.95447 18.5028 6.93741 18.5684 6.93741C18.6337 6.93741 18.699 6.95428 18.7576 6.98803C18.875 7.05572 18.9473 7.18083 18.9473 7.31634V9.44948C18.9473 9.79894 19.2202 10.0929 19.5555 10.1049C19.7292 10.1099 19.893 10.0483 20.0174 9.92827C20.1419 9.80812 20.2105 9.64669 20.2105 9.47372V5.93681L20.2105 5.93686ZM23.2421 6.94739C23.2421 6.59911 22.9588 6.3158 22.6105 6.3158H20.9684V8.58947H22.6061C22.6086 8.58947 22.611 8.58947 22.6134 8.58947C22.9604 8.58792 23.2421 8.30522 23.2421 7.95788V6.94739H23.2421Z" fill="black"/>
</g>
<defs>
<clipPath id="clip0_9_3732">
<rect width="24" height="24" fill="white"/>
</clipPath>
</defs>
</svg>
