<svg width="19" height="23" viewBox="0 0 19 23" fill="none" xmlns="http://www.w3.org/2000/svg">
<g id="Icon">
<path d="M1.5 6.3C1.5 4.61984 1.5 3.77976 1.82698 3.13803C2.1146 2.57354 2.57354 2.1146 3.13803 1.82698C3.77976 1.5 4.61984 1.5 6.3 1.5H12.7C14.3802 1.5 15.2202 1.5 15.862 1.82698C16.4265 2.1146 16.8854 2.57354 17.173 3.13803C17.5 3.77976 17.5 4.61984 17.5 6.3V16.7C17.5 18.3802 17.5 19.2202 17.173 19.862C16.8854 20.4265 16.4265 20.8854 15.862 21.173C15.2202 21.5 14.3802 21.5 12.7 21.5H6.3C4.61984 21.5 3.77976 21.5 3.13803 21.173C2.57354 20.8854 2.1146 20.4265 1.82698 19.862C1.5 19.2202 1.5 18.3802 1.5 16.7V6.3Z" fill="#3188E1"/>
<path d="M11.5 10.5H5.5M7.5 14.5H5.5M13.5 6.5H5.5M17.5 6.3V16.7C17.5 18.3802 17.5 19.2202 17.173 19.862C16.8854 20.4265 16.4265 20.8854 15.862 21.173C15.2202 21.5 14.3802 21.5 12.7 21.5H6.3C4.61984 21.5 3.77976 21.5 3.13803 21.173C2.57354 20.8854 2.1146 20.4265 1.82698 19.862C1.5 19.2202 1.5 18.3802 1.5 16.7V6.3C1.5 4.61984 1.5 3.77976 1.82698 3.13803C2.1146 2.57354 2.57354 2.1146 3.13803 1.82698C3.77976 1.5 4.61984 1.5 6.3 1.5H12.7C14.3802 1.5 15.2202 1.5 15.862 1.82698C16.4265 2.1146 16.8854 2.57354 17.173 3.13803C17.5 3.77976 17.5 4.61984 17.5 6.3Z" stroke="white" stroke-width="1.5" stroke-linecap="round" stroke-linejoin="round"/>
</g>
</svg>
